<svg xmlns="http://www.w3.org/2000/svg" xmlns:xlink="http://www.w3.org/1999/xlink" width="96" zoomAndPan="magnify" viewBox="0 0 72 30.000001" height="40" preserveAspectRatio="xMidYMid meet" version="1.0"><defs><g/><clipPath id="e43b2f8143"><path d="M 4.019531 7.746094 L 67.933594 7.746094 L 67.933594 21.277344 L 4.019531 21.277344 Z M 4.019531 7.746094 " clip-rule="nonzero"/></clipPath><clipPath id="7c60708ff2"><path d="M 10.832031 21.277344 L 67.933594 21.277344 L 67.933594 7.746094 L 10.832031 7.746094 L 4.066406 14.511719 Z M 10.832031 21.277344 " clip-rule="nonzero"/></clipPath><clipPath id="b9df5d6669"><path d="M 4.066406 7.75 L 67.925781 7.75 L 67.925781 21.277344 L 4.066406 21.277344 Z M 4.066406 7.75 " clip-rule="nonzero"/></clipPath><clipPath id="624c5cca38"><path d="M 10.839844 21.277344 L 67.925781 21.277344 L 67.925781 7.75 L 10.839844 7.75 L 4.074219 14.515625 Z M 10.839844 21.277344 " clip-rule="nonzero"/></clipPath></defs><g clip-path="url(#e43b2f8143)"><g clip-path="url(#7c60708ff2)"><path fill="#ffbc34" d="M 67.933594 21.277344 L 4.070312 21.277344 L 4.070312 7.746094 L 67.933594 7.746094 Z M 67.933594 21.277344 " fill-opacity="1" fill-rule="nonzero"/></g></g><g clip-path="url(#b9df5d6669)"><g clip-path="url(#624c5cca38)"><path stroke-linecap="butt" transform="matrix(-0.725806, 0, 0, -0.725806, 67.924963, 21.278645)" fill="none" stroke-linejoin="miter" d="M 78.65061 0.00179231 L -0.00112711 0.00179231 L -0.00112711 18.639466 L 78.65061 18.639466 L 87.972138 9.317938 Z M 78.65061 0.00179231 " stroke="#000000" stroke-width="2" stroke-opacity="1" stroke-miterlimit="4"/></g></g><path stroke-linecap="butt" transform="matrix(0.681622, 0, 0, 0.681622, -7.450518, 8.883932)" fill="none" stroke-linejoin="miter" d="M 34.484233 11.918457 C 34.541541 11.970034 34.610311 11.998688 34.690542 11.998688 L 36.071669 11.998688 C 36.157631 11.998688 36.232132 11.970034 36.28944 11.918457 C 36.341017 11.861149 36.369672 11.786648 36.369672 11.700686 L 36.369672 8.990009 L 37.980031 8.990009 C 38.627614 8.990009 39.189234 8.892585 39.670622 8.703469 C 40.152011 8.508621 40.524514 8.216349 40.788132 7.820923 C 41.051749 7.425496 41.183558 6.926915 41.183558 6.325179 C 41.183558 5.717713 41.051749 5.20767 40.788132 4.806513 C 40.524514 4.405356 40.152011 4.101622 39.670622 3.901044 C 39.189234 3.700465 38.627614 3.603041 37.980031 3.603041 L 34.690542 3.603041 C 34.610311 3.603041 34.541541 3.631695 34.484233 3.683273 C 34.432655 3.740581 34.404001 3.809351 34.404001 3.901044 L 34.404001 11.700686 C 34.404001 11.786648 34.432655 11.861149 34.484233 11.918457 Z M 37.916992 7.499997 L 36.346748 7.499997 L 36.346748 5.098784 L 37.916992 5.098784 C 38.369727 5.098784 38.696383 5.213401 38.896962 5.436903 C 39.103271 5.660405 39.206426 5.952676 39.206426 6.307987 C 39.206426 6.703413 39.09181 7.001416 38.868308 7.201994 C 38.644806 7.402573 38.329611 7.499997 37.916992 7.499997 Z M 42.87988 11.351106 C 43.418577 11.86688 44.152121 12.119036 45.069052 12.119036 C 45.533248 12.119036 45.945867 12.061727 46.301178 11.94138 C 46.656488 11.821033 46.954491 11.672032 47.195185 11.488646 C 47.43588 11.31099 47.619266 11.127604 47.739613 10.938487 C 47.865691 10.74937 47.92873 10.588907 47.940192 10.451368 C 47.945922 10.382598 47.922999 10.319559 47.871422 10.273712 C 47.819844 10.227866 47.756805 10.199212 47.688036 10.199212 L 46.415794 10.199212 C 46.329832 10.199212 46.261062 10.210673 46.215216 10.227866 C 46.1751 10.250789 46.117792 10.302367 46.043291 10.39406 C 46.003175 10.445637 45.940136 10.514407 45.859905 10.588907 C 45.773943 10.669139 45.670788 10.737909 45.538979 10.795217 C 45.412901 10.852525 45.252438 10.881179 45.05759 10.881179 C 44.811165 10.881179 44.599125 10.81814 44.427201 10.692062 C 44.255276 10.565984 44.129198 10.39406 44.037505 10.182019 C 43.951543 9.969979 43.905696 9.735016 43.894235 9.48286 L 43.894235 9.396897 L 47.808383 9.396897 C 47.894345 9.396897 47.968846 9.368243 48.026154 9.305204 C 48.077731 9.247896 48.106385 9.179126 48.106385 9.098895 L 48.106385 8.823816 C 48.106385 8.204887 47.991769 7.66046 47.768267 7.184802 C 47.539034 6.709144 47.200916 6.33091 46.748182 6.055831 C 46.301178 5.780752 45.739558 5.637481 45.05759 5.637481 C 44.461585 5.637481 43.93435 5.757828 43.487347 5.992792 C 43.040343 6.227755 42.690763 6.571605 42.444338 7.012877 C 42.192182 7.459881 42.054642 7.992847 42.025988 8.617506 L 42.025988 9.121818 C 42.054642 10.096057 42.341183 10.841063 42.87988 11.351106 Z M 46.238139 8.29085 L 43.894235 8.29085 L 43.894235 8.256465 C 43.894235 7.975655 43.940081 7.72923 44.031774 7.52292 C 44.123467 7.305149 44.255276 7.138955 44.427201 7.024339 C 44.599125 6.903992 44.811165 6.840953 45.05759 6.840953 C 45.309746 6.840953 45.521787 6.903992 45.693711 7.024339 C 45.871366 7.138955 46.003175 7.305149 46.094868 7.52292 C 46.192292 7.72923 46.238139 7.975655 46.238139 8.256465 Z M 49.395819 11.918457 C 49.458858 11.970034 49.527628 11.998688 49.607859 11.998688 L 50.880101 11.998688 C 50.971794 11.998688 51.040564 11.970034 51.092141 11.918457 C 51.149449 11.861149 51.178103 11.786648 51.178103 11.700686 L 51.178103 8.422658 C 51.178103 7.998578 51.286989 7.671921 51.510491 7.436958 C 51.728262 7.201994 52.026264 7.081647 52.404498 7.081647 C 52.794194 7.081647 53.092196 7.201994 53.292775 7.436958 C 53.499084 7.671921 53.602239 7.998578 53.602239 8.422658 L 53.602239 11.700686 C 53.602239 11.786648 53.630893 11.861149 53.688201 11.918457 C 53.745509 11.970034 53.814279 11.998688 53.905972 11.998688 L 55.178214 11.998688 C 55.264176 11.998688 55.332946 11.970034 55.390254 11.918457 C 55.447562 11.861149 55.476216 11.786648 55.476216 11.700686 L 55.476216 8.353889 C 55.476216 7.775076 55.373061 7.287957 55.172483 6.881069 C 54.971904 6.479911 54.696825 6.170447 54.335784 5.958407 C 53.974742 5.746367 53.562123 5.637481 53.086465 5.637481 C 52.622269 5.637481 52.226843 5.723444 51.894455 5.889637 C 51.562068 6.061562 51.29272 6.273602 51.080679 6.525758 L 51.080679 6.055831 C 51.080679 5.969869 51.057756 5.901099 51.000448 5.843791 C 50.94314 5.786483 50.87437 5.757828 50.782677 5.757828 L 49.607859 5.757828 C 49.527628 5.757828 49.458858 5.786483 49.395819 5.843791 C 49.338511 5.901099 49.309857 5.969869 49.309857 6.055831 L 49.309857 11.700686 C 49.309857 11.786648 49.338511 11.861149 49.395819 11.918457 Z M 58.163969 11.924188 C 58.473434 12.055997 58.834475 12.119036 59.235632 12.119036 C 59.688367 12.119036 60.066601 12.044535 60.370334 11.884072 C 60.674067 11.72934 60.926223 11.528761 61.126802 11.293798 L 61.126802 11.700686 C 61.126802 11.786648 61.155456 11.861149 61.212764 11.918457 C 61.264341 11.970034 61.333111 11.998688 61.413343 11.998688 L 62.565237 11.998688 C 62.65693 11.998688 62.7257 11.970034 62.783008 11.918457 C 62.840316 11.861149 62.86897 11.786648 62.86897 11.700686 L 62.86897 3.780697 C 62.86897 3.689003 62.840316 3.620234 62.783008 3.562925 C 62.7257 3.511348 62.65693 3.482694 62.565237 3.482694 L 61.333111 3.482694 C 61.241418 3.482694 61.172648 3.511348 61.11534 3.562925 C 61.058032 3.620234 61.029378 3.689003 61.029378 3.780697 L 61.029378 6.382488 C 60.840261 6.164716 60.593836 5.987061 60.301564 5.849522 C 60.003562 5.711982 59.648251 5.637481 59.235632 5.637481 C 58.834475 5.637481 58.473434 5.711982 58.158239 5.849522 C 57.843044 5.987061 57.579426 6.18764 57.361655 6.439796 C 57.155346 6.691952 56.989152 6.989954 56.874536 7.333803 C 56.754188 7.677652 56.691149 8.055886 56.673957 8.474236 C 56.668226 8.617506 56.662495 8.749315 56.662495 8.875393 C 56.662495 8.99574 56.668226 9.13328 56.673957 9.288012 C 56.69688 9.712092 56.76565 10.096057 56.880266 10.445637 C 56.989152 10.795217 57.155346 11.093219 57.367386 11.345375 C 57.585157 11.597531 57.848774 11.792379 58.163969 11.924188 Z M 60.496412 10.474291 C 60.318757 10.611831 60.078062 10.6806 59.785791 10.6806 C 59.476327 10.6806 59.241363 10.611831 59.063708 10.480022 C 58.886052 10.348213 58.759974 10.176289 58.685474 9.958517 C 58.610973 9.746477 58.565127 9.505783 58.547934 9.253627 C 58.530742 9.001471 58.530742 8.755046 58.547934 8.508621 C 58.565127 8.250734 58.610973 8.01577 58.685474 7.80373 C 58.759974 7.585959 58.886052 7.408304 59.063708 7.282226 C 59.241363 7.144686 59.476327 7.081647 59.785791 7.081647 C 60.072332 7.081647 60.301564 7.144686 60.47922 7.276495 C 60.656875 7.402573 60.788684 7.563036 60.880377 7.757884 C 60.97207 7.952731 61.023647 8.164772 61.029378 8.388274 C 61.04657 8.531544 61.058032 8.680545 61.058032 8.835277 C 61.058032 8.984279 61.04657 9.13328 61.029378 9.288012 C 61.023647 9.528706 60.977801 9.752208 60.891838 9.958517 C 60.811607 10.170558 60.679798 10.342482 60.496412 10.474291 Z M 64.427753 4.71482 C 64.485061 4.772128 64.553831 4.800782 64.634062 4.800782 L 65.900573 4.800782 C 65.980804 4.800782 66.055305 4.772128 66.112613 4.71482 C 66.175652 4.657512 66.204306 4.588742 66.204306 4.502779 L 66.204306 3.528541 C 66.204306 3.448309 66.175652 3.379539 66.112613 3.3165 C 66.055305 3.259192 65.980804 3.230538 65.900573 3.230538 L 64.634062 3.230538 C 64.553831 3.230538 64.485061 3.259192 64.427753 3.3165 C 64.370444 3.379539 64.34179 3.448309 64.34179 3.528541 L 64.34179 4.502779 C 64.34179 4.588742 64.370444 4.657512 64.427753 4.71482 Z M 64.456407 11.918457 C 64.513715 11.970034 64.588215 11.998688 64.668447 11.998688 L 65.877649 11.998688 C 65.957881 11.998688 66.026651 11.970034 66.083959 11.918457 C 66.141267 11.861149 66.16419 11.786648 66.16419 11.700686 L 66.16419 6.055831 C 66.16419 5.969869 66.141267 5.901099 66.083959 5.843791 C 66.026651 5.786483 65.957881 5.757828 65.877649 5.757828 L 64.668447 5.757828 C 64.588215 5.757828 64.513715 5.786483 64.456407 5.843791 C 64.399099 5.901099 64.370444 5.969869 64.370444 6.055831 L 64.370444 11.700686 C 64.370444 11.786648 64.399099 11.861149 64.456407 11.918457 Z M 68.273131 11.351106 C 68.811828 11.86688 69.545372 12.119036 70.462303 12.119036 C 70.926499 12.119036 71.339118 12.061727 71.694429 11.94138 C 72.049739 11.821033 72.347742 11.672032 72.588436 11.488646 C 72.829131 11.31099 73.006786 11.127604 73.132864 10.938487 C 73.258942 10.74937 73.321981 10.588907 73.333443 10.451368 C 73.339173 10.382598 73.31625 10.319559 73.264673 10.273712 C 73.213095 10.227866 73.150056 10.199212 73.081287 10.199212 L 71.809045 10.199212 C 71.717352 10.199212 71.654313 10.210673 71.608467 10.227866 C 71.56262 10.250789 71.505312 10.302367 71.436542 10.39406 C 71.396426 10.445637 71.333387 10.514407 71.253156 10.588907 C 71.167194 10.669139 71.058308 10.737909 70.93223 10.795217 C 70.806152 10.852525 70.645689 10.881179 70.450841 10.881179 C 70.204416 10.881179 69.992376 10.81814 69.820452 10.692062 C 69.648527 10.565984 69.516718 10.39406 69.430756 10.182019 C 69.344794 9.969979 69.293216 9.735016 69.287486 9.48286 L 69.287486 9.396897 L 73.201634 9.396897 C 73.287596 9.396897 73.362097 9.368243 73.413674 9.305204 C 73.470982 9.247896 73.499636 9.179126 73.499636 9.098895 L 73.499636 8.823816 C 73.499636 8.204887 73.38502 7.66046 73.155787 7.184802 C 72.932285 6.709144 72.588436 6.33091 72.141433 6.055831 C 71.694429 5.780752 71.132809 5.637481 70.450841 5.637481 C 69.849106 5.637481 69.327601 5.757828 68.880598 5.992792 C 68.427863 6.227755 68.084014 6.571605 67.837589 7.012877 C 67.585433 7.459881 67.447893 7.992847 67.413508 8.617506 L 67.413508 9.121818 C 67.447893 10.096057 67.734434 10.841063 68.273131 11.351106 Z M 71.63139 8.29085 L 69.287486 8.29085 L 69.287486 8.256465 C 69.287486 7.975655 69.333332 7.72923 69.425025 7.52292 C 69.516718 7.305149 69.648527 7.138955 69.820452 7.024339 C 69.992376 6.903992 70.204416 6.840953 70.450841 6.840953 C 70.697267 6.840953 70.909307 6.903992 71.086962 7.024339 C 71.264618 7.138955 71.396426 7.305149 71.488119 7.52292 C 71.579812 7.72923 71.63139 7.975655 71.63139 8.256465 Z M 74.78907 11.918457 C 74.846378 11.970034 74.920879 11.998688 75.00111 11.998688 L 76.273352 11.998688 C 76.359314 11.998688 76.433815 11.970034 76.485392 11.918457 C 76.5427 11.861149 76.571354 11.786648 76.571354 11.700686 L 76.571354 8.422658 C 76.571354 7.998578 76.68024 7.671921 76.898011 7.436958 C 77.121513 7.201994 77.419515 7.081647 77.797749 7.081647 C 78.187445 7.081647 78.485447 7.201994 78.686026 7.436958 C 78.892335 7.671921 78.99549 7.998578 78.99549 8.422658 L 78.99549 11.700686 C 78.99549 11.786648 79.024144 11.861149 79.081452 11.918457 C 79.13876 11.970034 79.20753 11.998688 79.299223 11.998688 L 80.565734 11.998688 C 80.657427 11.998688 80.726197 11.970034 80.783505 11.918457 C 80.840813 11.861149 80.869467 11.786648 80.869467 11.700686 L 80.869467 8.353889 C 80.869467 7.775076 80.766312 7.287957 80.565734 6.881069 C 80.365155 6.479911 80.084345 6.170447 79.729035 5.958407 C 79.367993 5.746367 78.949643 5.637481 78.479716 5.637481 C 78.01552 5.637481 77.620094 5.723444 77.287706 5.889637 C 76.955319 6.061562 76.685971 6.273602 76.47393 6.525758 L 76.47393 6.055831 C 76.47393 5.969869 76.445276 5.901099 76.387968 5.843791 C 76.336391 5.786483 76.26189 5.757828 76.175928 5.757828 L 75.00111 5.757828 C 74.920879 5.757828 74.846378 5.786483 74.78907 5.843791 C 74.731762 5.901099 74.697377 5.969869 74.697377 6.055831 L 74.697377 11.700686 C 74.697377 11.786648 74.731762 11.861149 74.78907 11.918457 Z M 84.04434 11.752263 C 84.388189 11.918457 84.812269 11.998688 85.30512 11.998688 L 86.348128 11.998688 C 86.439821 11.998688 86.508591 11.970034 86.565899 11.918457 C 86.623208 11.861149 86.651862 11.786648 86.651862 11.700686 L 86.651862 10.812409 C 86.651862 10.732178 86.623208 10.663408 86.565899 10.6061 C 86.508591 10.554522 86.439821 10.525868 86.348128 10.525868 L 85.477044 10.525868 C 85.213427 10.525868 85.02431 10.439906 84.909693 10.267982 C 84.800808 10.096057 84.7435 9.855363 84.7435 9.551629 L 84.7435 7.17334 L 86.244974 7.17334 C 86.330936 7.17334 86.405437 7.144686 86.457014 7.093109 C 86.514322 7.035801 86.542976 6.967031 86.542976 6.886799 L 86.542976 6.055831 C 86.542976 5.969869 86.514322 5.901099 86.457014 5.843791 C 86.405437 5.786483 86.330936 5.757828 86.244974 5.757828 L 84.7435 5.757828 L 84.7435 3.780697 C 84.7435 3.689003 84.714845 3.620234 84.657537 3.562925 C 84.60596 3.511348 84.53719 3.482694 84.456959 3.482694 L 83.27068 3.482694 C 83.190448 3.482694 83.115947 3.511348 83.058639 3.562925 C 82.9956 3.620234 82.966946 3.689003 82.966946 3.780697 L 82.966946 5.757828 L 82.032823 5.757828 C 81.946861 5.757828 81.87236 5.786483 81.815052 5.843791 C 81.757744 5.901099 81.72909 5.969869 81.72909 6.055831 L 81.72909 6.886799 C 81.72909 6.967031 81.757744 7.035801 81.815052 7.093109 C 81.87236 7.144686 81.946861 7.17334 82.032823 7.17334 L 82.966946 7.17334 L 82.966946 9.6949 C 82.966946 10.216404 83.058639 10.646216 83.242025 10.990065 C 83.425412 11.333914 83.69476 11.5918 84.04434 11.752263 Z M 88.273683 11.351106 C 88.818111 11.86688 89.545924 12.119036 90.468586 12.119036 C 90.932782 12.119036 91.33967 12.061727 91.694981 11.94138 C 92.050292 11.821033 92.348294 11.672032 92.588988 11.488646 C 92.829683 11.31099 93.013069 11.127604 93.133416 10.938487 C 93.259494 10.74937 93.328264 10.588907 93.333995 10.451368 C 93.345456 10.382598 93.322533 10.319559 93.265225 10.273712 C 93.219378 10.227866 93.156339 10.199212 93.081839 10.199212 L 91.809597 10.199212 C 91.723635 10.199212 91.654865 10.210673 91.614749 10.227866 C 91.568903 10.250789 91.511595 10.302367 91.437094 10.39406 C 91.402709 10.445637 91.33967 10.514407 91.253708 10.588907 C 91.173476 10.669139 91.064591 10.737909 90.938513 10.795217 C 90.806704 10.852525 90.646241 10.881179 90.457124 10.881179 C 90.204968 10.881179 89.998659 10.81814 89.826734 10.692062 C 89.65481 10.565984 89.523001 10.39406 89.437039 10.182019 C 89.345346 9.969979 89.299499 9.735016 89.293768 9.48286 L 89.293768 9.396897 L 93.202186 9.396897 C 93.293879 9.396897 93.362649 9.368243 93.419957 9.305204 C 93.477265 9.247896 93.505919 9.179126 93.505919 9.098895 L 93.505919 8.823816 C 93.505919 8.204887 93.391303 7.66046 93.16207 7.184802 C 92.932837 6.709144 92.594719 6.33091 92.147715 6.055831 C 91.700712 5.780752 91.133361 5.637481 90.457124 5.637481 C 89.855389 5.637481 89.333884 5.757828 88.88115 5.992792 C 88.434146 6.227755 88.084566 6.571605 87.838141 7.012877 C 87.591716 7.459881 87.454176 7.992847 87.419791 8.617506 L 87.419791 9.121818 C 87.454176 10.096057 87.734986 10.841063 88.273683 11.351106 Z M 91.631942 8.29085 L 89.293768 8.29085 L 89.293768 8.256465 C 89.293768 7.975655 89.339615 7.72923 89.431308 7.52292 C 89.523001 7.305149 89.65481 7.138955 89.826734 7.024339 C 89.998659 6.903992 90.204968 6.840953 90.457124 6.840953 C 90.703549 6.840953 90.91559 6.903992 91.093245 7.024339 C 91.26517 7.138955 91.402709 7.305149 91.494402 7.52292 C 91.586095 7.72923 91.631942 7.975655 91.631942 8.256465 Z M 91.631942 8.29085 " stroke="#000000" stroke-width="1.77" stroke-opacity="1" stroke-miterlimit="4"/><g fill="#ffffff" fill-opacity="1"><g transform="translate(15.394463, 17.063394)"><g><path d="M 0.796875 0 C 0.742188 0 0.695312 -0.015625 0.65625 -0.046875 C 0.625 -0.0859375 0.609375 -0.140625 0.609375 -0.203125 L 0.609375 -5.515625 C 0.609375 -5.578125 0.625 -5.625 0.65625 -5.65625 C 0.695312 -5.695312 0.742188 -5.71875 0.796875 -5.71875 L 3.046875 -5.71875 C 3.484375 -5.71875 3.863281 -5.648438 4.1875 -5.515625 C 4.519531 -5.378906 4.773438 -5.171875 4.953125 -4.890625 C 5.128906 -4.617188 5.21875 -4.273438 5.21875 -3.859375 C 5.21875 -3.453125 5.128906 -3.113281 4.953125 -2.84375 C 4.773438 -2.570312 4.519531 -2.367188 4.1875 -2.234375 C 3.863281 -2.109375 3.484375 -2.046875 3.046875 -2.046875 L 1.9375 -2.046875 L 1.9375 -0.203125 C 1.9375 -0.140625 1.914062 -0.0859375 1.875 -0.046875 C 1.84375 -0.015625 1.796875 0 1.734375 0 Z M 1.921875 -3.0625 L 3 -3.0625 C 3.28125 -3.0625 3.492188 -3.128906 3.640625 -3.265625 C 3.796875 -3.398438 3.875 -3.601562 3.875 -3.875 C 3.875 -4.113281 3.800781 -4.3125 3.65625 -4.46875 C 3.519531 -4.625 3.300781 -4.703125 3 -4.703125 L 1.921875 -4.703125 Z M 1.921875 -3.0625 "/></g></g></g><g fill="#ffffff" fill-opacity="1"><g transform="translate(20.858379, 17.063394)"><g><path d="M 2.40625 0.078125 C 1.78125 0.078125 1.285156 -0.09375 0.921875 -0.4375 C 0.554688 -0.789062 0.359375 -1.300781 0.328125 -1.96875 C 0.328125 -2.007812 0.328125 -2.066406 0.328125 -2.140625 C 0.328125 -2.210938 0.328125 -2.265625 0.328125 -2.296875 C 0.359375 -2.722656 0.457031 -3.085938 0.625 -3.390625 C 0.789062 -3.691406 1.023438 -3.921875 1.328125 -4.078125 C 1.640625 -4.242188 2 -4.328125 2.40625 -4.328125 C 2.863281 -4.328125 3.242188 -4.234375 3.546875 -4.046875 C 3.859375 -3.859375 4.09375 -3.601562 4.25 -3.28125 C 4.40625 -2.957031 4.484375 -2.585938 4.484375 -2.171875 L 4.484375 -1.984375 C 4.484375 -1.921875 4.460938 -1.867188 4.421875 -1.828125 C 4.378906 -1.785156 4.332031 -1.765625 4.28125 -1.765625 L 1.609375 -1.765625 C 1.609375 -1.765625 1.609375 -1.757812 1.609375 -1.75 C 1.609375 -1.738281 1.609375 -1.726562 1.609375 -1.71875 C 1.617188 -1.539062 1.648438 -1.378906 1.703125 -1.234375 C 1.765625 -1.085938 1.851562 -0.972656 1.96875 -0.890625 C 2.09375 -0.804688 2.238281 -0.765625 2.40625 -0.765625 C 2.53125 -0.765625 2.632812 -0.78125 2.71875 -0.8125 C 2.8125 -0.851562 2.882812 -0.898438 2.9375 -0.953125 C 3 -1.003906 3.046875 -1.050781 3.078125 -1.09375 C 3.117188 -1.15625 3.15625 -1.191406 3.1875 -1.203125 C 3.21875 -1.210938 3.265625 -1.21875 3.328125 -1.21875 L 4.1875 -1.21875 C 4.238281 -1.21875 4.28125 -1.203125 4.3125 -1.171875 C 4.351562 -1.140625 4.367188 -1.097656 4.359375 -1.046875 C 4.359375 -0.960938 4.316406 -0.851562 4.234375 -0.71875 C 4.148438 -0.59375 4.023438 -0.46875 3.859375 -0.34375 C 3.691406 -0.21875 3.488281 -0.113281 3.25 -0.03125 C 3.007812 0.0390625 2.726562 0.078125 2.40625 0.078125 Z M 1.609375 -2.53125 L 3.203125 -2.53125 L 3.203125 -2.546875 C 3.203125 -2.734375 3.171875 -2.898438 3.109375 -3.046875 C 3.046875 -3.191406 2.953125 -3.304688 2.828125 -3.390625 C 2.710938 -3.472656 2.570312 -3.515625 2.40625 -3.515625 C 2.238281 -3.515625 2.09375 -3.472656 1.96875 -3.390625 C 1.851562 -3.304688 1.765625 -3.191406 1.703125 -3.046875 C 1.640625 -2.898438 1.609375 -2.734375 1.609375 -2.546875 Z M 1.609375 -2.53125 "/></g></g></g><g fill="#ffffff" fill-opacity="1"><g transform="translate(25.651574, 17.063394)"><g><path d="M 0.71875 0 C 0.65625 0 0.601562 -0.015625 0.5625 -0.046875 C 0.519531 -0.0859375 0.5 -0.140625 0.5 -0.203125 L 0.5 -4.046875 C 0.5 -4.109375 0.519531 -4.15625 0.5625 -4.1875 C 0.601562 -4.226562 0.65625 -4.25 0.71875 -4.25 L 1.515625 -4.25 C 1.578125 -4.25 1.625 -4.226562 1.65625 -4.1875 C 1.695312 -4.15625 1.71875 -4.109375 1.71875 -4.046875 L 1.71875 -3.71875 C 1.851562 -3.894531 2.035156 -4.039062 2.265625 -4.15625 C 2.492188 -4.269531 2.765625 -4.328125 3.078125 -4.328125 C 3.398438 -4.328125 3.679688 -4.253906 3.921875 -4.109375 C 4.171875 -3.960938 4.363281 -3.753906 4.5 -3.484375 C 4.632812 -3.210938 4.703125 -2.878906 4.703125 -2.484375 L 4.703125 -0.203125 C 4.703125 -0.140625 4.679688 -0.0859375 4.640625 -0.046875 C 4.609375 -0.015625 4.5625 0 4.5 0 L 3.640625 0 C 3.578125 0 3.523438 -0.015625 3.484375 -0.046875 C 3.453125 -0.0859375 3.4375 -0.140625 3.4375 -0.203125 L 3.4375 -2.4375 C 3.4375 -2.726562 3.363281 -2.953125 3.21875 -3.109375 C 3.082031 -3.265625 2.878906 -3.34375 2.609375 -3.34375 C 2.359375 -3.34375 2.15625 -3.265625 2 -3.109375 C 1.851562 -2.953125 1.78125 -2.726562 1.78125 -2.4375 L 1.78125 -0.203125 C 1.78125 -0.140625 1.757812 -0.0859375 1.71875 -0.046875 C 1.6875 -0.015625 1.640625 0 1.578125 0 Z M 0.71875 0 "/></g></g></g><g fill="#ffffff" fill-opacity="1"><g transform="translate(30.82921, 17.063394)"><g><path d="M 2.09375 0.078125 C 1.820312 0.078125 1.578125 0.0351562 1.359375 -0.046875 C 1.148438 -0.140625 0.972656 -0.269531 0.828125 -0.4375 C 0.679688 -0.613281 0.566406 -0.816406 0.484375 -1.046875 C 0.410156 -1.285156 0.363281 -1.550781 0.34375 -1.84375 C 0.34375 -1.945312 0.34375 -2.039062 0.34375 -2.125 C 0.34375 -2.207031 0.34375 -2.300781 0.34375 -2.40625 C 0.363281 -2.6875 0.410156 -2.941406 0.484375 -3.171875 C 0.566406 -3.410156 0.675781 -3.613281 0.8125 -3.78125 C 0.957031 -3.957031 1.140625 -4.09375 1.359375 -4.1875 C 1.578125 -4.28125 1.820312 -4.328125 2.09375 -4.328125 C 2.375 -4.328125 2.613281 -4.28125 2.8125 -4.1875 C 3.019531 -4.09375 3.1875 -3.972656 3.3125 -3.828125 L 3.3125 -5.59375 C 3.3125 -5.65625 3.332031 -5.703125 3.375 -5.734375 C 3.414062 -5.773438 3.460938 -5.796875 3.515625 -5.796875 L 4.359375 -5.796875 C 4.421875 -5.796875 4.46875 -5.773438 4.5 -5.734375 C 4.539062 -5.703125 4.5625 -5.65625 4.5625 -5.59375 L 4.5625 -0.203125 C 4.5625 -0.140625 4.539062 -0.0859375 4.5 -0.046875 C 4.46875 -0.015625 4.421875 0 4.359375 0 L 3.578125 0 C 3.523438 0 3.476562 -0.015625 3.4375 -0.046875 C 3.40625 -0.0859375 3.390625 -0.140625 3.390625 -0.203125 L 3.390625 -0.484375 C 3.242188 -0.316406 3.066406 -0.179688 2.859375 -0.078125 C 2.660156 0.0234375 2.40625 0.078125 2.09375 0.078125 Z M 2.46875 -0.90625 C 2.664062 -0.90625 2.828125 -0.945312 2.953125 -1.03125 C 3.078125 -1.125 3.164062 -1.242188 3.21875 -1.390625 C 3.28125 -1.535156 3.3125 -1.6875 3.3125 -1.84375 C 3.320312 -1.945312 3.328125 -2.050781 3.328125 -2.15625 C 3.328125 -2.257812 3.320312 -2.359375 3.3125 -2.453125 C 3.3125 -2.609375 3.28125 -2.753906 3.21875 -2.890625 C 3.15625 -3.023438 3.0625 -3.132812 2.9375 -3.21875 C 2.820312 -3.300781 2.664062 -3.34375 2.46875 -3.34375 C 2.257812 -3.34375 2.09375 -3.296875 1.96875 -3.203125 C 1.851562 -3.117188 1.769531 -3.003906 1.71875 -2.859375 C 1.664062 -2.710938 1.632812 -2.550781 1.625 -2.375 C 1.613281 -2.207031 1.613281 -2.039062 1.625 -1.875 C 1.632812 -1.695312 1.664062 -1.535156 1.71875 -1.390625 C 1.769531 -1.242188 1.851562 -1.125 1.96875 -1.03125 C 2.09375 -0.945312 2.257812 -0.90625 2.46875 -0.90625 Z M 2.46875 -0.90625 "/></g></g></g><g fill="#ffffff" fill-opacity="1"><g transform="translate(35.916869, 17.063394)"><g><path d="M 0.71875 0 C 0.65625 0 0.601562 -0.015625 0.5625 -0.046875 C 0.519531 -0.0859375 0.5 -0.140625 0.5 -0.203125 L 0.5 -4.046875 C 0.5 -4.109375 0.519531 -4.15625 0.5625 -4.1875 C 0.601562 -4.226562 0.65625 -4.25 0.71875 -4.25 L 1.53125 -4.25 C 1.59375 -4.25 1.640625 -4.226562 1.671875 -4.1875 C 1.710938 -4.15625 1.734375 -4.109375 1.734375 -4.046875 L 1.734375 -0.203125 C 1.734375 -0.140625 1.710938 -0.0859375 1.671875 -0.046875 C 1.640625 -0.015625 1.59375 0 1.53125 0 Z M 0.6875 -4.90625 C 0.632812 -4.90625 0.585938 -4.921875 0.546875 -4.953125 C 0.503906 -4.992188 0.484375 -5.046875 0.484375 -5.109375 L 0.484375 -5.765625 C 0.484375 -5.816406 0.503906 -5.863281 0.546875 -5.90625 C 0.585938 -5.945312 0.632812 -5.96875 0.6875 -5.96875 L 1.546875 -5.96875 C 1.609375 -5.96875 1.65625 -5.945312 1.6875 -5.90625 C 1.726562 -5.863281 1.75 -5.816406 1.75 -5.765625 L 1.75 -5.109375 C 1.75 -5.046875 1.726562 -4.992188 1.6875 -4.953125 C 1.65625 -4.921875 1.609375 -4.90625 1.546875 -4.90625 Z M 0.6875 -4.90625 "/></g></g></g><g fill="#ffffff" fill-opacity="1"><g transform="translate(38.166234, 17.063394)"><g><path d="M 2.40625 0.078125 C 1.78125 0.078125 1.285156 -0.09375 0.921875 -0.4375 C 0.554688 -0.789062 0.359375 -1.300781 0.328125 -1.96875 C 0.328125 -2.007812 0.328125 -2.066406 0.328125 -2.140625 C 0.328125 -2.210938 0.328125 -2.265625 0.328125 -2.296875 C 0.359375 -2.722656 0.457031 -3.085938 0.625 -3.390625 C 0.789062 -3.691406 1.023438 -3.921875 1.328125 -4.078125 C 1.640625 -4.242188 2 -4.328125 2.40625 -4.328125 C 2.863281 -4.328125 3.242188 -4.234375 3.546875 -4.046875 C 3.859375 -3.859375 4.09375 -3.601562 4.25 -3.28125 C 4.40625 -2.957031 4.484375 -2.585938 4.484375 -2.171875 L 4.484375 -1.984375 C 4.484375 -1.921875 4.460938 -1.867188 4.421875 -1.828125 C 4.378906 -1.785156 4.332031 -1.765625 4.28125 -1.765625 L 1.609375 -1.765625 C 1.609375 -1.765625 1.609375 -1.757812 1.609375 -1.75 C 1.609375 -1.738281 1.609375 -1.726562 1.609375 -1.71875 C 1.617188 -1.539062 1.648438 -1.378906 1.703125 -1.234375 C 1.765625 -1.085938 1.851562 -0.972656 1.96875 -0.890625 C 2.09375 -0.804688 2.238281 -0.765625 2.40625 -0.765625 C 2.53125 -0.765625 2.632812 -0.78125 2.71875 -0.8125 C 2.8125 -0.851562 2.882812 -0.898438 2.9375 -0.953125 C 3 -1.003906 3.046875 -1.050781 3.078125 -1.09375 C 3.117188 -1.15625 3.15625 -1.191406 3.1875 -1.203125 C 3.21875 -1.210938 3.265625 -1.21875 3.328125 -1.21875 L 4.1875 -1.21875 C 4.238281 -1.21875 4.28125 -1.203125 4.3125 -1.171875 C 4.351562 -1.140625 4.367188 -1.097656 4.359375 -1.046875 C 4.359375 -0.960938 4.316406 -0.851562 4.234375 -0.71875 C 4.148438 -0.59375 4.023438 -0.46875 3.859375 -0.34375 C 3.691406 -0.21875 3.488281 -0.113281 3.25 -0.03125 C 3.007812 0.0390625 2.726562 0.078125 2.40625 0.078125 Z M 1.609375 -2.53125 L 3.203125 -2.53125 L 3.203125 -2.546875 C 3.203125 -2.734375 3.171875 -2.898438 3.109375 -3.046875 C 3.046875 -3.191406 2.953125 -3.304688 2.828125 -3.390625 C 2.710938 -3.472656 2.570312 -3.515625 2.40625 -3.515625 C 2.238281 -3.515625 2.09375 -3.472656 1.96875 -3.390625 C 1.851562 -3.304688 1.765625 -3.191406 1.703125 -3.046875 C 1.640625 -2.898438 1.609375 -2.734375 1.609375 -2.546875 Z M 1.609375 -2.53125 "/></g></g></g><g fill="#ffffff" fill-opacity="1"><g transform="translate(42.959428, 17.063394)"><g><path d="M 0.71875 0 C 0.65625 0 0.601562 -0.015625 0.5625 -0.046875 C 0.519531 -0.0859375 0.5 -0.140625 0.5 -0.203125 L 0.5 -4.046875 C 0.5 -4.109375 0.519531 -4.15625 0.5625 -4.1875 C 0.601562 -4.226562 0.65625 -4.25 0.71875 -4.25 L 1.515625 -4.25 C 1.578125 -4.25 1.625 -4.226562 1.65625 -4.1875 C 1.695312 -4.15625 1.71875 -4.109375 1.71875 -4.046875 L 1.71875 -3.71875 C 1.851562 -3.894531 2.035156 -4.039062 2.265625 -4.15625 C 2.492188 -4.269531 2.765625 -4.328125 3.078125 -4.328125 C 3.398438 -4.328125 3.679688 -4.253906 3.921875 -4.109375 C 4.171875 -3.960938 4.363281 -3.753906 4.5 -3.484375 C 4.632812 -3.210938 4.703125 -2.878906 4.703125 -2.484375 L 4.703125 -0.203125 C 4.703125 -0.140625 4.679688 -0.0859375 4.640625 -0.046875 C 4.609375 -0.015625 4.5625 0 4.5 0 L 3.640625 0 C 3.578125 0 3.523438 -0.015625 3.484375 -0.046875 C 3.453125 -0.0859375 3.4375 -0.140625 3.4375 -0.203125 L 3.4375 -2.4375 C 3.4375 -2.726562 3.363281 -2.953125 3.21875 -3.109375 C 3.082031 -3.265625 2.878906 -3.34375 2.609375 -3.34375 C 2.359375 -3.34375 2.15625 -3.265625 2 -3.109375 C 1.851562 -2.953125 1.78125 -2.726562 1.78125 -2.4375 L 1.78125 -0.203125 C 1.78125 -0.140625 1.757812 -0.0859375 1.71875 -0.046875 C 1.6875 -0.015625 1.640625 0 1.578125 0 Z M 0.71875 0 "/></g></g></g><g fill="#ffffff" fill-opacity="1"><g transform="translate(48.137064, 17.063394)"><g><path d="M 2.5625 0 C 2.21875 0 1.925781 -0.0507812 1.6875 -0.15625 C 1.457031 -0.269531 1.28125 -0.441406 1.15625 -0.671875 C 1.03125 -0.910156 0.96875 -1.207031 0.96875 -1.5625 L 0.96875 -3.28125 L 0.328125 -3.28125 C 0.265625 -3.28125 0.210938 -3.300781 0.171875 -3.34375 C 0.140625 -3.382812 0.125 -3.429688 0.125 -3.484375 L 0.125 -4.046875 C 0.125 -4.109375 0.140625 -4.15625 0.171875 -4.1875 C 0.210938 -4.226562 0.265625 -4.25 0.328125 -4.25 L 0.96875 -4.25 L 0.96875 -5.59375 C 0.96875 -5.65625 0.988281 -5.703125 1.03125 -5.734375 C 1.070312 -5.773438 1.117188 -5.796875 1.171875 -5.796875 L 1.984375 -5.796875 C 2.035156 -5.796875 2.078125 -5.773438 2.109375 -5.734375 C 2.148438 -5.703125 2.171875 -5.65625 2.171875 -5.59375 L 2.171875 -4.25 L 3.1875 -4.25 C 3.25 -4.25 3.300781 -4.226562 3.34375 -4.1875 C 3.382812 -4.15625 3.40625 -4.109375 3.40625 -4.046875 L 3.40625 -3.484375 C 3.40625 -3.429688 3.382812 -3.382812 3.34375 -3.34375 C 3.300781 -3.300781 3.25 -3.28125 3.1875 -3.28125 L 2.171875 -3.28125 L 2.171875 -1.671875 C 2.171875 -1.460938 2.207031 -1.296875 2.28125 -1.171875 C 2.363281 -1.054688 2.492188 -1 2.671875 -1 L 3.265625 -1 C 3.328125 -1 3.375 -0.976562 3.40625 -0.9375 C 3.445312 -0.90625 3.46875 -0.863281 3.46875 -0.8125 L 3.46875 -0.203125 C 3.46875 -0.140625 3.445312 -0.0859375 3.40625 -0.046875 C 3.375 -0.015625 3.328125 0 3.265625 0 Z M 2.5625 0 "/></g></g></g><g fill="#ffffff" fill-opacity="1"><g transform="translate(51.801489, 17.063394)"><g><path d="M 2.40625 0.078125 C 1.78125 0.078125 1.285156 -0.09375 0.921875 -0.4375 C 0.554688 -0.789062 0.359375 -1.300781 0.328125 -1.96875 C 0.328125 -2.007812 0.328125 -2.066406 0.328125 -2.140625 C 0.328125 -2.210938 0.328125 -2.265625 0.328125 -2.296875 C 0.359375 -2.722656 0.457031 -3.085938 0.625 -3.390625 C 0.789062 -3.691406 1.023438 -3.921875 1.328125 -4.078125 C 1.640625 -4.242188 2 -4.328125 2.40625 -4.328125 C 2.863281 -4.328125 3.242188 -4.234375 3.546875 -4.046875 C 3.859375 -3.859375 4.09375 -3.601562 4.25 -3.28125 C 4.40625 -2.957031 4.484375 -2.585938 4.484375 -2.171875 L 4.484375 -1.984375 C 4.484375 -1.921875 4.460938 -1.867188 4.421875 -1.828125 C 4.378906 -1.785156 4.332031 -1.765625 4.28125 -1.765625 L 1.609375 -1.765625 C 1.609375 -1.765625 1.609375 -1.757812 1.609375 -1.75 C 1.609375 -1.738281 1.609375 -1.726562 1.609375 -1.71875 C 1.617188 -1.539062 1.648438 -1.378906 1.703125 -1.234375 C 1.765625 -1.085938 1.851562 -0.972656 1.96875 -0.890625 C 2.09375 -0.804688 2.238281 -0.765625 2.40625 -0.765625 C 2.53125 -0.765625 2.632812 -0.78125 2.71875 -0.8125 C 2.8125 -0.851562 2.882812 -0.898438 2.9375 -0.953125 C 3 -1.003906 3.046875 -1.050781 3.078125 -1.09375 C 3.117188 -1.15625 3.15625 -1.191406 3.1875 -1.203125 C 3.21875 -1.210938 3.265625 -1.21875 3.328125 -1.21875 L 4.1875 -1.21875 C 4.238281 -1.21875 4.28125 -1.203125 4.3125 -1.171875 C 4.351562 -1.140625 4.367188 -1.097656 4.359375 -1.046875 C 4.359375 -0.960938 4.316406 -0.851562 4.234375 -0.71875 C 4.148438 -0.59375 4.023438 -0.46875 3.859375 -0.34375 C 3.691406 -0.21875 3.488281 -0.113281 3.25 -0.03125 C 3.007812 0.0390625 2.726562 0.078125 2.40625 0.078125 Z M 1.609375 -2.53125 L 3.203125 -2.53125 L 3.203125 -2.546875 C 3.203125 -2.734375 3.171875 -2.898438 3.109375 -3.046875 C 3.046875 -3.191406 2.953125 -3.304688 2.828125 -3.390625 C 2.710938 -3.472656 2.570312 -3.515625 2.40625 -3.515625 C 2.238281 -3.515625 2.09375 -3.472656 1.96875 -3.390625 C 1.851562 -3.304688 1.765625 -3.191406 1.703125 -3.046875 C 1.640625 -2.898438 1.609375 -2.734375 1.609375 -2.546875 Z M 1.609375 -2.53125 "/></g></g></g></svg>