<svg xmlns="http://www.w3.org/2000/svg" xmlns:xlink="http://www.w3.org/1999/xlink" width="96" zoomAndPan="magnify" viewBox="0 0 72 30.000001" height="40" preserveAspectRatio="xMidYMid meet" version="1.0"><defs><g/><clipPath id="acd08c9c5c"><path d="M 2.589844 7.441406 L 69.351562 7.441406 L 69.351562 21.578125 L 2.589844 21.578125 Z M 2.589844 7.441406 " clip-rule="nonzero"/></clipPath><clipPath id="bfc956d90f"><path d="M 9.707031 21.578125 L 69.351562 21.578125 L 69.351562 7.441406 L 9.707031 7.441406 L 2.640625 14.511719 Z M 9.707031 21.578125 " clip-rule="nonzero"/></clipPath><clipPath id="fc5e2902bc"><path d="M 2.574219 7.789062 L 69.339844 7.789062 L 69.339844 21.578125 L 2.574219 21.578125 Z M 2.574219 7.789062 " clip-rule="nonzero"/></clipPath><clipPath id="9dc1357cde"><path d="M 9.71875 21.578125 L 69.339844 21.578125 L 69.339844 7.449219 L 9.71875 7.449219 L 2.652344 14.511719 Z M 9.71875 21.578125 " clip-rule="nonzero"/></clipPath></defs><g clip-path="url(#acd08c9c5c)"><g clip-path="url(#bfc956d90f)"><path fill="#009efb" d="M 69.351562 21.578125 L 2.648438 21.578125 L 2.648438 7.441406 L 69.351562 7.441406 Z M 69.351562 21.578125 " fill-opacity="1" fill-rule="nonzero"/></g></g><g clip-path="url(#fc5e2902bc)"><g clip-path="url(#9dc1357cde)"><path stroke-linecap="butt" transform="matrix(-0.725806, 0, 0, -0.725806, 69.340534, 21.578745)" fill="none" stroke-linejoin="miter" d="M 82.14557 0.000854268 L 0.000951384 0.000854268 L 0.000951384 19.467347 L 82.14557 19.467347 L 91.881508 9.736792 Z M 82.14557 0.000854268 " stroke="#000000" stroke-width="2" stroke-opacity="1" stroke-miterlimit="4"/></g></g><path stroke-linecap="butt" transform="matrix(0.711937, 0, 0, 0.711937, -9.38296, 8.820638)" fill="none" stroke-linejoin="miter" d="M 36.706861 11.741283 C 37.233593 11.993676 37.870062 12.119872 38.616266 12.119872 C 39.159458 12.119872 39.647783 12.054031 40.08124 11.916861 C 40.520183 11.779691 40.898772 11.587653 41.217006 11.329774 C 41.53524 11.071895 41.787633 10.775608 41.968697 10.42994 C 42.149761 10.084272 42.243037 9.700196 42.248523 9.277713 C 42.259497 9.200898 42.23755 9.14603 42.182682 9.096649 C 42.133301 9.047267 42.072946 9.02532 42.001618 9.02532 L 40.618946 9.02532 C 40.52567 9.02532 40.448855 9.047267 40.3885 9.091162 C 40.333632 9.135056 40.289738 9.211871 40.256817 9.327094 C 40.147081 9.793471 39.949557 10.117192 39.664243 10.29277 C 39.37893 10.468347 39.033262 10.556136 38.616266 10.556136 C 38.127941 10.556136 37.738378 10.424453 37.447578 10.150113 C 37.162265 9.88126 37.008635 9.431343 36.981201 8.805848 C 36.959254 8.119999 36.959254 7.445123 36.981201 6.792195 C 37.008635 6.1667 37.162265 5.72227 37.447578 5.44793 C 37.738378 5.173591 38.127941 5.036421 38.616266 5.036421 C 39.033262 5.036421 39.37893 5.124209 39.658757 5.2943 C 39.938583 5.469877 40.141594 5.793598 40.256817 6.276436 C 40.289738 6.386172 40.333632 6.468474 40.3885 6.512368 C 40.448855 6.556263 40.52567 6.57821 40.618946 6.57821 L 42.001618 6.57821 C 42.072946 6.57821 42.133301 6.550776 42.182682 6.501395 C 42.23755 6.4575 42.259497 6.397146 42.248523 6.325817 C 42.243037 5.903334 42.149761 5.519259 41.968697 5.173591 C 41.787633 4.827923 41.53524 4.526149 41.217006 4.273756 C 40.898772 4.015877 40.520183 3.818352 40.08124 3.686669 C 39.647783 3.549499 39.159458 3.478171 38.616266 3.478171 C 37.881035 3.478171 37.244567 3.609854 36.717835 3.862247 C 36.191102 4.120126 35.779593 4.487741 35.488793 4.976066 C 35.197993 5.458904 35.033389 6.045991 35.000468 6.73184 C 34.994981 7.077508 34.989494 7.43415 34.989494 7.812739 C 34.989494 8.185841 34.994981 8.542482 35.000468 8.866203 C 35.033389 9.563026 35.192506 10.1556 35.477819 10.638438 C 35.768619 11.121276 36.180129 11.488891 36.706861 11.741283 Z M 44.651739 11.790665 C 45.09617 12.010136 45.655823 12.119872 46.319725 12.119872 C 46.972653 12.119872 47.52682 12.010136 47.976737 11.790665 C 48.421167 11.571193 48.766835 11.258446 48.997281 10.846936 C 49.2387 10.440913 49.370383 9.963562 49.403303 9.420369 C 49.414277 9.261252 49.414277 9.074701 49.414277 8.87169 C 49.414277 8.668679 49.414277 8.493101 49.403303 8.339471 C 49.370383 7.790791 49.227726 7.307954 48.98082 6.907418 C 48.733914 6.501395 48.38276 6.188648 47.938329 5.969176 C 47.488412 5.749704 46.950706 5.639968 46.319725 5.639968 C 45.67777 5.639968 45.134577 5.749704 44.68466 5.969176 C 44.234743 6.188648 43.889075 6.501395 43.642169 6.907418 C 43.395264 7.307954 43.258094 7.790791 43.236146 8.339471 C 43.225173 8.493101 43.219686 8.668679 43.219686 8.87169 C 43.219686 9.074701 43.225173 9.261252 43.236146 9.420369 C 43.258094 9.963562 43.389777 10.440913 43.625709 10.846936 C 43.861641 11.258446 44.201822 11.571193 44.651739 11.790665 Z M 47.203099 10.42994 C 47.005574 10.665872 46.709287 10.786581 46.319725 10.786581 C 45.924676 10.786581 45.628389 10.665872 45.430864 10.42994 C 45.227853 10.188521 45.118117 9.831879 45.09617 9.360015 C 45.085196 9.239305 45.085196 9.080188 45.085196 8.877177 C 45.085196 8.679652 45.085196 8.520535 45.09617 8.399826 C 45.118117 7.938935 45.227853 7.582293 45.430864 7.340874 C 45.628389 7.093969 45.924676 6.973259 46.319725 6.973259 C 46.709287 6.973259 47.005574 7.093969 47.203099 7.340874 C 47.395137 7.582293 47.504873 7.938935 47.532307 8.399826 C 47.537793 8.520535 47.54328 8.679652 47.54328 8.877177 C 47.54328 9.080188 47.537793 9.239305 47.532307 9.360015 C 47.504873 9.831879 47.395137 10.188521 47.203099 10.42994 Z M 50.753055 11.916861 C 50.81341 11.971729 50.879251 11.999163 50.961553 11.999163 L 52.234489 11.999163 C 52.322278 11.999163 52.393606 11.971729 52.448474 11.916861 C 52.508829 11.861993 52.536263 11.790665 52.536263 11.702876 L 52.536263 8.421773 C 52.536263 7.99929 52.645999 7.670082 52.865471 7.43415 C 53.084942 7.198218 53.381229 7.082995 53.759818 7.082995 C 54.149381 7.082995 54.445667 7.198218 54.648679 7.43415 C 54.857177 7.670082 54.955939 7.99929 54.955939 8.421773 L 54.955939 11.702876 C 54.955939 11.790665 54.983373 11.861993 55.043728 11.916861 C 55.098596 11.971729 55.169924 11.999163 55.257713 11.999163 L 56.530649 11.999163 C 56.618438 11.999163 56.689766 11.971729 56.744634 11.916861 C 56.799502 11.861993 56.832423 11.790665 56.832423 11.702876 L 56.832423 8.350445 C 56.832423 7.774331 56.728174 7.286006 56.530649 6.879984 C 56.327638 6.479448 56.047811 6.172187 55.69117 5.958202 C 55.329041 5.744217 54.917532 5.639968 54.440181 5.639968 C 53.97929 5.639968 53.584241 5.72227 53.249546 5.892361 C 52.920339 6.056964 52.645999 6.270949 52.437501 6.528829 L 52.437501 6.056964 C 52.437501 5.969176 52.410067 5.897847 52.355199 5.842979 C 52.300331 5.788112 52.229003 5.760678 52.141214 5.760678 L 50.961553 5.760678 C 50.879251 5.760678 50.81341 5.788112 50.753055 5.842979 C 50.6927 5.897847 50.665266 5.969176 50.665266 6.056964 L 50.665266 11.702876 C 50.665266 11.790665 50.6927 11.861993 50.753055 11.916861 Z M 59.499005 11.796151 C 59.943435 12.010136 60.464681 12.119872 61.051768 12.119872 C 61.485225 12.119872 61.8693 12.070491 62.198508 11.971729 C 62.533202 11.872967 62.813029 11.741283 63.043474 11.57668 C 63.279406 11.412076 63.471444 11.231012 63.619588 11.044461 C 63.767731 10.846936 63.877467 10.660385 63.943309 10.473834 C 64.020124 10.29277 64.058531 10.133653 64.064018 9.996483 C 64.074992 9.908694 64.047558 9.837366 63.981716 9.782498 C 63.921361 9.72763 63.844546 9.694709 63.767731 9.694709 L 62.483821 9.694709 C 62.396033 9.694709 62.330191 9.716656 62.286297 9.760551 C 62.242402 9.798958 62.198508 9.859313 62.1601 9.947102 C 62.055851 10.226928 61.918681 10.42994 61.748591 10.550649 C 61.583987 10.671359 61.359028 10.726226 61.079202 10.726226 C 60.717073 10.726226 60.437247 10.616491 60.228749 10.391532 C 60.025737 10.166573 59.916001 9.804445 59.905028 9.310634 C 59.888568 9.052754 59.888568 8.772928 59.905028 8.46018 C 59.916001 7.971856 60.025737 7.609727 60.228749 7.379282 C 60.437247 7.148837 60.717073 7.033614 61.079202 7.033614 C 61.342568 7.033614 61.56204 7.093969 61.737617 7.214678 C 61.913195 7.329901 62.055851 7.532912 62.1601 7.812739 C 62.198508 7.900527 62.242402 7.966369 62.286297 8.004776 C 62.330191 8.043184 62.396033 8.065131 62.483821 8.065131 L 63.767731 8.065131 C 63.844546 8.065131 63.921361 8.037697 63.981716 7.982829 C 64.047558 7.922475 64.074992 7.851146 64.064018 7.763358 C 64.058531 7.582293 63.99269 7.368308 63.87198 7.126889 C 63.751271 6.88547 63.575693 6.655025 63.334274 6.430066 C 63.092855 6.199621 62.785595 6.01307 62.412493 5.864927 C 62.033904 5.711296 61.583987 5.639968 61.051768 5.639968 C 60.464681 5.639968 59.943435 5.749704 59.493518 5.963689 C 59.043601 6.177674 58.697933 6.490421 58.445541 6.907418 C 58.193148 7.318927 58.055978 7.812739 58.028544 8.399826 C 58.023057 8.526022 58.017571 8.690626 58.017571 8.88815 C 58.017571 9.080188 58.023057 9.244792 58.028544 9.370988 C 58.055978 9.947102 58.193148 10.440913 58.451027 10.852423 C 58.708907 11.263932 59.060062 11.582166 59.499005 11.796151 Z M 65.315007 11.916861 C 65.369875 11.971729 65.441203 11.999163 65.528992 11.999163 L 66.7306 11.999163 C 66.818389 11.999163 66.889717 11.971729 66.944585 11.916861 C 66.999453 11.861993 67.026887 11.790665 67.026887 11.702876 L 67.026887 3.779945 C 67.026887 3.692156 66.999453 3.620828 66.944585 3.56596 C 66.889717 3.511092 66.818389 3.478171 66.7306 3.478171 L 65.528992 3.478171 C 65.441203 3.478171 65.369875 3.511092 65.315007 3.56596 C 65.260139 3.620828 65.232705 3.692156 65.232705 3.779945 L 65.232705 11.702876 C 65.232705 11.790665 65.260139 11.861993 65.315007 11.916861 Z M 69.60568 11.801638 C 69.962322 12.015623 70.368345 12.119872 70.834722 12.119872 C 71.306587 12.119872 71.707123 12.043057 72.03633 11.889427 C 72.365538 11.741283 72.628904 11.521812 72.837402 11.231012 L 72.837402 11.702876 C 72.837402 11.790665 72.864836 11.861993 72.925191 11.916861 C 72.980059 11.971729 73.045901 11.999163 73.128202 11.999163 L 74.31335 11.999163 C 74.395652 11.999163 74.461493 11.971729 74.521848 11.916861 C 74.576716 11.861993 74.60415 11.790665 74.60415 11.702876 L 74.60415 6.056964 C 74.60415 5.969176 74.576716 5.897847 74.521848 5.842979 C 74.461493 5.788112 74.395652 5.760678 74.31335 5.760678 L 73.040414 5.760678 C 72.952625 5.760678 72.881297 5.788112 72.826429 5.842979 C 72.771561 5.897847 72.744127 5.969176 72.744127 6.056964 L 72.744127 9.338068 C 72.744127 9.760551 72.634391 10.089758 72.414919 10.325691 C 72.189961 10.561623 71.893674 10.676845 71.520572 10.676845 C 70.73596 10.676845 70.340911 10.232415 70.340911 9.338068 L 70.340911 6.056964 C 70.340911 5.969176 70.313477 5.897847 70.258609 5.842979 C 70.203741 5.788112 70.132413 5.760678 70.055598 5.760678 L 68.771688 5.760678 C 68.689386 5.760678 68.623544 5.788112 68.557703 5.842979 C 68.497348 5.897847 68.469914 5.969176 68.469914 6.056964 L 68.469914 9.409396 C 68.469914 9.985509 68.568676 10.473834 68.766201 10.879857 C 68.969212 11.280393 69.249039 11.59314 69.60568 11.801638 Z M 76.1624 4.718187 C 76.217268 4.773055 76.288596 4.800489 76.365411 4.800489 L 77.638347 4.800489 C 77.720649 4.800489 77.786491 4.773055 77.846846 4.718187 C 77.9072 4.657832 77.940121 4.586504 77.940121 4.498715 L 77.940121 3.527552 C 77.940121 3.44525 77.9072 3.379409 77.846846 3.319054 C 77.786491 3.258699 77.720649 3.225779 77.638347 3.225779 L 76.365411 3.225779 C 76.288596 3.225779 76.217268 3.258699 76.1624 3.319054 C 76.107532 3.379409 76.080098 3.44525 76.080098 3.527552 L 76.080098 4.498715 C 76.080098 4.586504 76.107532 4.657832 76.1624 4.718187 Z M 76.189834 11.916861 C 76.250188 11.971729 76.321517 11.999163 76.403819 11.999163 L 77.6164 11.999163 C 77.693215 11.999163 77.764544 11.971729 77.819412 11.916861 C 77.87428 11.861993 77.901714 11.790665 77.901714 11.702876 L 77.901714 6.056964 C 77.901714 5.969176 77.87428 5.897847 77.819412 5.842979 C 77.764544 5.788112 77.693215 5.760678 77.6164 5.760678 L 76.403819 5.760678 C 76.321517 5.760678 76.250188 5.788112 76.189834 5.842979 C 76.134966 5.897847 76.102045 5.969176 76.102045 6.056964 L 76.102045 11.702876 C 76.102045 11.790665 76.134966 11.861993 76.189834 11.916861 Z M 80.661571 11.922348 C 80.974318 12.054031 81.33096 12.119872 81.731496 12.119872 C 82.1869 12.119872 82.565489 12.043057 82.867263 11.88394 C 83.174523 11.73031 83.426916 11.532785 83.629927 11.291366 L 83.629927 11.702876 C 83.629927 11.790665 83.657361 11.861993 83.712229 11.916861 C 83.767097 11.971729 83.832938 11.999163 83.91524 11.999163 L 85.067467 11.999163 C 85.155256 11.999163 85.226584 11.971729 85.281452 11.916861 C 85.341807 11.861993 85.369241 11.790665 85.369241 11.702876 L 85.369241 3.779945 C 85.369241 3.692156 85.341807 3.620828 85.281452 3.56596 C 85.226584 3.511092 85.155256 3.478171 85.067467 3.478171 L 83.827452 3.478171 C 83.739663 3.478171 83.668334 3.511092 83.613467 3.56596 C 83.558599 3.620828 83.531165 3.692156 83.531165 3.779945 L 83.531165 6.386172 C 83.339127 6.1667 83.097708 5.991123 82.795934 5.848466 C 82.505134 5.711296 82.148492 5.639968 81.731496 5.639968 C 81.33096 5.639968 80.974318 5.711296 80.656084 5.848466 C 80.33785 5.991123 80.074484 6.183161 79.860499 6.44104 C 79.652001 6.693433 79.487397 6.98972 79.372174 7.335388 C 79.256952 7.675569 79.19111 8.054158 79.17465 8.471154 C 79.169163 8.619297 79.163676 8.750981 79.163676 8.87169 C 79.163676 8.997886 79.169163 9.135056 79.17465 9.288686 C 79.196597 9.71117 79.267925 10.095245 79.377661 10.4464 C 79.487397 10.797555 79.652001 11.093842 79.871473 11.346234 C 80.085458 11.598627 80.348824 11.790665 80.661571 11.922348 Z M 82.998946 10.473834 C 82.817881 10.611004 82.581949 10.676845 82.285662 10.676845 C 81.978402 10.676845 81.736983 10.611004 81.561405 10.484808 C 81.385828 10.347638 81.259632 10.177547 81.182817 9.963562 C 81.106002 9.74409 81.062107 9.508158 81.045647 9.250279 C 81.029186 9.003373 81.029186 8.756467 81.045647 8.509562 C 81.062107 8.251682 81.106002 8.01575 81.182817 7.801765 C 81.259632 7.582293 81.385828 7.412203 81.561405 7.28052 C 81.736983 7.148837 81.978402 7.082995 82.285662 7.082995 C 82.570976 7.082995 82.801421 7.14335 82.976998 7.275033 C 83.152576 7.401229 83.289746 7.560346 83.383021 7.757871 C 83.47081 7.955395 83.525678 8.163894 83.531165 8.388852 C 83.547625 8.531509 83.553112 8.679652 83.553112 8.833282 C 83.553112 8.981426 83.547625 9.135056 83.531165 9.288686 C 83.525678 9.524619 83.476297 9.749577 83.393995 9.963562 C 83.311693 10.166573 83.18001 10.342151 82.998946 10.473834 Z M 87.574932 11.872967 C 87.909627 12.03757 88.293702 12.119872 88.716185 12.119872 C 89.045393 12.119872 89.330706 12.081465 89.572125 11.999163 C 89.819031 11.922348 90.027529 11.812612 90.203107 11.680929 C 90.378684 11.549246 90.521341 11.406589 90.62559 11.258446 L 90.62559 11.702876 C 90.62559 11.790665 90.653024 11.861993 90.702405 11.916861 C 90.76276 11.971729 90.828601 11.999163 90.910903 11.999163 L 92.101537 11.999163 C 92.178353 11.999163 92.249681 11.971729 92.299062 11.916861 C 92.359417 11.861993 92.386851 11.790665 92.386851 11.702876 L 92.386851 7.993803 C 92.386851 7.664595 92.33747 7.357335 92.238707 7.077508 C 92.139945 6.792195 91.975341 6.539802 91.755869 6.325817 C 91.536398 6.106346 91.245598 5.941742 90.888956 5.821032 C 90.526828 5.700323 90.093371 5.639968 89.594072 5.639968 C 89.111235 5.639968 88.699725 5.700323 88.359544 5.821032 C 88.019362 5.941742 87.745023 6.089885 87.525551 6.270949 C 87.311566 6.446527 87.152449 6.633078 87.0482 6.819629 C 86.943951 7.000693 86.889083 7.15981 86.889083 7.29698 C 86.883596 7.368308 86.900056 7.428663 86.949438 7.483531 C 86.998819 7.532912 87.06466 7.560346 87.152449 7.560346 L 88.293702 7.560346 C 88.425385 7.560346 88.518661 7.505478 88.584502 7.401229 C 88.672291 7.236625 88.793 7.099455 88.946631 6.995206 C 89.105748 6.890957 89.314246 6.841576 89.577612 6.841576 C 89.939741 6.841576 90.192133 6.923878 90.33479 7.093969 C 90.477446 7.258572 90.548775 7.499991 90.548775 7.812739 L 90.548775 8.026724 L 88.979551 8.257169 C 88.227861 8.372392 87.618826 8.59735 87.157936 8.926558 C 86.702532 9.255766 86.472086 9.705683 86.472086 10.270823 C 86.472086 10.616491 86.570849 10.929238 86.768373 11.209064 C 86.971385 11.488891 87.240238 11.708363 87.574932 11.872967 Z M 89.901333 10.704279 C 89.692835 10.814015 89.462389 10.87437 89.193536 10.87437 C 89.028933 10.87437 88.869816 10.841449 88.721672 10.786581 C 88.573529 10.726226 88.452819 10.638438 88.359544 10.534189 C 88.271755 10.424453 88.222374 10.29277 88.222374 10.139139 C 88.222374 9.930641 88.321136 9.755064 88.524148 9.612407 C 88.721672 9.469751 89.034419 9.360015 89.462389 9.288686 L 90.576209 9.107622 L 90.576209 9.310634 C 90.576209 9.661788 90.515854 9.958075 90.395144 10.188521 C 90.274435 10.418966 90.109831 10.589057 89.901333 10.704279 Z M 89.901333 10.704279 " stroke="#000000" stroke-width="1.77" stroke-opacity="1" stroke-miterlimit="4"/><g fill="#ffffff" fill-opacity="1"><g transform="translate(15.100987, 17.363877)"><g><path d="M 3.015625 0.078125 C 2.484375 0.078125 2.023438 -0.0078125 1.640625 -0.1875 C 1.265625 -0.363281 0.972656 -0.625 0.765625 -0.96875 C 0.566406 -1.3125 0.457031 -1.734375 0.4375 -2.234375 C 0.425781 -2.460938 0.421875 -2.710938 0.421875 -2.984375 C 0.421875 -3.253906 0.425781 -3.507812 0.4375 -3.75 C 0.457031 -4.238281 0.570312 -4.65625 0.78125 -5 C 0.988281 -5.34375 1.28125 -5.601562 1.65625 -5.78125 C 2.03125 -5.96875 2.484375 -6.0625 3.015625 -6.0625 C 3.398438 -6.0625 3.742188 -6.015625 4.046875 -5.921875 C 4.359375 -5.828125 4.628906 -5.6875 4.859375 -5.5 C 5.085938 -5.320312 5.265625 -5.109375 5.390625 -4.859375 C 5.523438 -4.617188 5.59375 -4.347656 5.59375 -4.046875 C 5.601562 -3.992188 5.585938 -3.945312 5.546875 -3.90625 C 5.515625 -3.875 5.472656 -3.859375 5.421875 -3.859375 L 4.4375 -3.859375 C 4.363281 -3.859375 4.304688 -3.875 4.265625 -3.90625 C 4.234375 -3.9375 4.203125 -3.992188 4.171875 -4.078125 C 4.085938 -4.421875 3.945312 -4.648438 3.75 -4.765625 C 3.550781 -4.890625 3.304688 -4.953125 3.015625 -4.953125 C 2.660156 -4.953125 2.378906 -4.851562 2.171875 -4.65625 C 1.972656 -4.46875 1.863281 -4.148438 1.84375 -3.703125 C 1.832031 -3.242188 1.832031 -2.769531 1.84375 -2.28125 C 1.863281 -1.832031 1.972656 -1.507812 2.171875 -1.3125 C 2.378906 -1.125 2.660156 -1.03125 3.015625 -1.03125 C 3.304688 -1.03125 3.550781 -1.09375 3.75 -1.21875 C 3.957031 -1.34375 4.097656 -1.570312 4.171875 -1.90625 C 4.203125 -1.988281 4.234375 -2.046875 4.265625 -2.078125 C 4.304688 -2.109375 4.363281 -2.125 4.4375 -2.125 L 5.421875 -2.125 C 5.472656 -2.125 5.515625 -2.101562 5.546875 -2.0625 C 5.585938 -2.03125 5.601562 -1.988281 5.59375 -1.9375 C 5.59375 -1.632812 5.523438 -1.359375 5.390625 -1.109375 C 5.265625 -0.867188 5.085938 -0.65625 4.859375 -0.46875 C 4.628906 -0.289062 4.359375 -0.15625 4.046875 -0.0625 C 3.742188 0.03125 3.398438 0.078125 3.015625 0.078125 Z M 3.015625 0.078125 "/></g></g></g><g fill="#ffffff" fill-opacity="1"><g transform="translate(21.021491, 17.363877)"><g><path d="M 2.578125 0.078125 C 2.097656 0.078125 1.695312 0 1.375 -0.15625 C 1.0625 -0.3125 0.820312 -0.53125 0.65625 -0.8125 C 0.488281 -1.101562 0.394531 -1.445312 0.375 -1.84375 C 0.375 -1.957031 0.375 -2.082031 0.375 -2.21875 C 0.375 -2.363281 0.375 -2.492188 0.375 -2.609375 C 0.394531 -3.003906 0.492188 -3.34375 0.671875 -3.625 C 0.847656 -3.914062 1.09375 -4.140625 1.40625 -4.296875 C 1.726562 -4.453125 2.117188 -4.53125 2.578125 -4.53125 C 3.023438 -4.53125 3.40625 -4.453125 3.71875 -4.296875 C 4.039062 -4.140625 4.289062 -3.914062 4.46875 -3.625 C 4.644531 -3.34375 4.742188 -3.003906 4.765625 -2.609375 C 4.773438 -2.492188 4.78125 -2.363281 4.78125 -2.21875 C 4.78125 -2.082031 4.773438 -1.957031 4.765625 -1.84375 C 4.742188 -1.445312 4.648438 -1.101562 4.484375 -0.8125 C 4.316406 -0.53125 4.070312 -0.3125 3.75 -0.15625 C 3.425781 0 3.035156 0.078125 2.578125 0.078125 Z M 2.578125 -0.859375 C 2.847656 -0.859375 3.050781 -0.941406 3.1875 -1.109375 C 3.332031 -1.285156 3.414062 -1.539062 3.4375 -1.875 C 3.4375 -1.96875 3.4375 -2.082031 3.4375 -2.21875 C 3.4375 -2.363281 3.4375 -2.476562 3.4375 -2.5625 C 3.414062 -2.894531 3.332031 -3.144531 3.1875 -3.3125 C 3.050781 -3.488281 2.847656 -3.578125 2.578125 -3.578125 C 2.296875 -3.578125 2.082031 -3.488281 1.9375 -3.3125 C 1.789062 -3.144531 1.710938 -2.894531 1.703125 -2.5625 C 1.691406 -2.476562 1.6875 -2.363281 1.6875 -2.21875 C 1.6875 -2.082031 1.691406 -1.96875 1.703125 -1.875 C 1.710938 -1.539062 1.789062 -1.285156 1.9375 -1.109375 C 2.082031 -0.941406 2.296875 -0.859375 2.578125 -0.859375 Z M 2.578125 -0.859375 "/></g></g></g><g fill="#ffffff" fill-opacity="1"><g transform="translate(26.156015, 17.363877)"><g><path d="M 0.75 0 C 0.6875 0 0.632812 -0.0195312 0.59375 -0.0625 C 0.550781 -0.101562 0.53125 -0.15625 0.53125 -0.21875 L 0.53125 -4.234375 C 0.53125 -4.296875 0.550781 -4.34375 0.59375 -4.375 C 0.632812 -4.414062 0.6875 -4.4375 0.75 -4.4375 L 1.578125 -4.4375 C 1.640625 -4.4375 1.691406 -4.414062 1.734375 -4.375 C 1.773438 -4.34375 1.796875 -4.296875 1.796875 -4.234375 L 1.796875 -3.890625 C 1.941406 -4.078125 2.128906 -4.226562 2.359375 -4.34375 C 2.597656 -4.46875 2.882812 -4.53125 3.21875 -4.53125 C 3.550781 -4.53125 3.847656 -4.453125 4.109375 -4.296875 C 4.367188 -4.148438 4.566406 -3.929688 4.703125 -3.640625 C 4.847656 -3.359375 4.921875 -3.007812 4.921875 -2.59375 L 4.921875 -0.21875 C 4.921875 -0.15625 4.898438 -0.101562 4.859375 -0.0625 C 4.816406 -0.0195312 4.765625 0 4.703125 0 L 3.796875 0 C 3.734375 0 3.679688 -0.0195312 3.640625 -0.0625 C 3.609375 -0.101562 3.59375 -0.15625 3.59375 -0.21875 L 3.59375 -2.546875 C 3.59375 -2.847656 3.519531 -3.082031 3.375 -3.25 C 3.226562 -3.414062 3.015625 -3.5 2.734375 -3.5 C 2.460938 -3.5 2.25 -3.414062 2.09375 -3.25 C 1.9375 -3.082031 1.859375 -2.847656 1.859375 -2.546875 L 1.859375 -0.21875 C 1.859375 -0.15625 1.835938 -0.101562 1.796875 -0.0625 C 1.765625 -0.0195312 1.71875 0 1.65625 0 Z M 0.75 0 "/></g></g></g><g fill="#ffffff" fill-opacity="1"><g transform="translate(31.563924, 17.363877)"><g><path d="M 2.515625 0.078125 C 2.097656 0.078125 1.726562 0.00390625 1.40625 -0.140625 C 1.09375 -0.296875 0.84375 -0.519531 0.65625 -0.8125 C 0.476562 -1.101562 0.382812 -1.457031 0.375 -1.875 C 0.363281 -1.96875 0.359375 -2.082031 0.359375 -2.21875 C 0.359375 -2.351562 0.363281 -2.46875 0.375 -2.5625 C 0.382812 -2.976562 0.476562 -3.332031 0.65625 -3.625 C 0.84375 -3.914062 1.09375 -4.140625 1.40625 -4.296875 C 1.726562 -4.453125 2.097656 -4.53125 2.515625 -4.53125 C 2.890625 -4.53125 3.210938 -4.476562 3.484375 -4.375 C 3.753906 -4.269531 3.972656 -4.132812 4.140625 -3.96875 C 4.316406 -3.800781 4.445312 -3.632812 4.53125 -3.46875 C 4.613281 -3.300781 4.660156 -3.148438 4.671875 -3.015625 C 4.671875 -2.953125 4.644531 -2.898438 4.59375 -2.859375 C 4.550781 -2.816406 4.503906 -2.796875 4.453125 -2.796875 L 3.53125 -2.796875 C 3.46875 -2.796875 3.421875 -2.8125 3.390625 -2.84375 C 3.359375 -2.875 3.332031 -2.921875 3.3125 -2.984375 C 3.238281 -3.179688 3.140625 -3.320312 3.015625 -3.40625 C 2.890625 -3.488281 2.726562 -3.53125 2.53125 -3.53125 C 2.28125 -3.53125 2.082031 -3.445312 1.9375 -3.28125 C 1.789062 -3.125 1.710938 -2.867188 1.703125 -2.515625 C 1.691406 -2.296875 1.691406 -2.097656 1.703125 -1.921875 C 1.710938 -1.566406 1.789062 -1.304688 1.9375 -1.140625 C 2.082031 -0.984375 2.28125 -0.90625 2.53125 -0.90625 C 2.738281 -0.90625 2.898438 -0.945312 3.015625 -1.03125 C 3.140625 -1.113281 3.238281 -1.257812 3.3125 -1.46875 C 3.332031 -1.53125 3.359375 -1.570312 3.390625 -1.59375 C 3.421875 -1.625 3.46875 -1.640625 3.53125 -1.640625 L 4.453125 -1.640625 C 4.503906 -1.640625 4.550781 -1.617188 4.59375 -1.578125 C 4.644531 -1.535156 4.671875 -1.484375 4.671875 -1.421875 C 4.660156 -1.328125 4.628906 -1.210938 4.578125 -1.078125 C 4.523438 -0.953125 4.445312 -0.820312 4.34375 -0.6875 C 4.238281 -0.550781 4.101562 -0.421875 3.9375 -0.296875 C 3.769531 -0.179688 3.566406 -0.0859375 3.328125 -0.015625 C 3.097656 0.046875 2.828125 0.078125 2.515625 0.078125 Z M 2.515625 0.078125 "/></g></g></g><g fill="#ffffff" fill-opacity="1"><g transform="translate(36.51904, 17.363877)"><g><path d="M 0.75 0 C 0.6875 0 0.632812 -0.0195312 0.59375 -0.0625 C 0.550781 -0.101562 0.53125 -0.15625 0.53125 -0.21875 L 0.53125 -5.859375 C 0.53125 -5.921875 0.550781 -5.96875 0.59375 -6 C 0.632812 -6.039062 0.6875 -6.0625 0.75 -6.0625 L 1.609375 -6.0625 C 1.671875 -6.0625 1.722656 -6.039062 1.765625 -6 C 1.804688 -5.96875 1.828125 -5.921875 1.828125 -5.859375 L 1.828125 -0.21875 C 1.828125 -0.15625 1.804688 -0.101562 1.765625 -0.0625 C 1.722656 -0.0195312 1.671875 0 1.609375 0 Z M 0.75 0 "/></g></g></g><g fill="#ffffff" fill-opacity="1"><g transform="translate(38.876994, 17.363877)"><g><path d="M 2.171875 0.078125 C 1.835938 0.078125 1.546875 0.00390625 1.296875 -0.140625 C 1.046875 -0.296875 0.847656 -0.515625 0.703125 -0.796875 C 0.554688 -1.085938 0.484375 -1.4375 0.484375 -1.84375 L 0.484375 -4.234375 C 0.484375 -4.296875 0.503906 -4.34375 0.546875 -4.375 C 0.585938 -4.414062 0.640625 -4.4375 0.703125 -4.4375 L 1.609375 -4.4375 C 1.671875 -4.4375 1.722656 -4.414062 1.765625 -4.375 C 1.804688 -4.34375 1.828125 -4.296875 1.828125 -4.234375 L 1.828125 -1.890625 C 1.828125 -1.253906 2.101562 -0.9375 2.65625 -0.9375 C 2.925781 -0.9375 3.140625 -1.019531 3.296875 -1.1875 C 3.453125 -1.351562 3.53125 -1.585938 3.53125 -1.890625 L 3.53125 -4.234375 C 3.53125 -4.296875 3.550781 -4.34375 3.59375 -4.375 C 3.632812 -4.414062 3.6875 -4.4375 3.75 -4.4375 L 4.65625 -4.4375 C 4.707031 -4.4375 4.753906 -4.414062 4.796875 -4.375 C 4.835938 -4.34375 4.859375 -4.296875 4.859375 -4.234375 L 4.859375 -0.21875 C 4.859375 -0.15625 4.835938 -0.101562 4.796875 -0.0625 C 4.753906 -0.0195312 4.707031 0 4.65625 0 L 3.796875 0 C 3.742188 0 3.695312 -0.0195312 3.65625 -0.0625 C 3.613281 -0.101562 3.59375 -0.15625 3.59375 -0.21875 L 3.59375 -0.546875 C 3.445312 -0.335938 3.253906 -0.179688 3.015625 -0.078125 C 2.785156 0.0234375 2.503906 0.078125 2.171875 0.078125 Z M 2.171875 0.078125 "/></g></g></g><g fill="#ffffff" fill-opacity="1"><g transform="translate(44.267815, 17.363877)"><g><path d="M 0.75 0 C 0.6875 0 0.632812 -0.0195312 0.59375 -0.0625 C 0.550781 -0.101562 0.53125 -0.15625 0.53125 -0.21875 L 0.53125 -4.234375 C 0.53125 -4.296875 0.550781 -4.34375 0.59375 -4.375 C 0.632812 -4.414062 0.6875 -4.4375 0.75 -4.4375 L 1.609375 -4.4375 C 1.660156 -4.4375 1.707031 -4.414062 1.75 -4.375 C 1.789062 -4.34375 1.8125 -4.296875 1.8125 -4.234375 L 1.8125 -0.21875 C 1.8125 -0.15625 1.789062 -0.101562 1.75 -0.0625 C 1.707031 -0.0195312 1.660156 0 1.609375 0 Z M 0.71875 -5.125 C 0.65625 -5.125 0.601562 -5.144531 0.5625 -5.1875 C 0.53125 -5.226562 0.515625 -5.28125 0.515625 -5.34375 L 0.515625 -6.03125 C 0.515625 -6.09375 0.53125 -6.144531 0.5625 -6.1875 C 0.601562 -6.226562 0.65625 -6.25 0.71875 -6.25 L 1.625 -6.25 C 1.675781 -6.25 1.722656 -6.226562 1.765625 -6.1875 C 1.816406 -6.144531 1.84375 -6.09375 1.84375 -6.03125 L 1.84375 -5.34375 C 1.84375 -5.28125 1.816406 -5.226562 1.765625 -5.1875 C 1.722656 -5.144531 1.675781 -5.125 1.625 -5.125 Z M 0.71875 -5.125 "/></g></g></g><g fill="#ffffff" fill-opacity="1"><g transform="translate(46.617219, 17.363877)"><g><path d="M 2.1875 0.078125 C 1.90625 0.078125 1.648438 0.03125 1.421875 -0.0625 C 1.203125 -0.15625 1.015625 -0.289062 0.859375 -0.46875 C 0.703125 -0.644531 0.582031 -0.859375 0.5 -1.109375 C 0.425781 -1.359375 0.382812 -1.632812 0.375 -1.9375 C 0.363281 -2.039062 0.359375 -2.132812 0.359375 -2.21875 C 0.359375 -2.3125 0.363281 -2.410156 0.375 -2.515625 C 0.382812 -2.804688 0.425781 -3.070312 0.5 -3.3125 C 0.582031 -3.5625 0.695312 -3.773438 0.84375 -3.953125 C 1 -4.140625 1.191406 -4.28125 1.421875 -4.375 C 1.648438 -4.476562 1.90625 -4.53125 2.1875 -4.53125 C 2.476562 -4.53125 2.726562 -4.476562 2.9375 -4.375 C 3.15625 -4.28125 3.332031 -4.15625 3.46875 -4 L 3.46875 -5.859375 C 3.46875 -5.921875 3.488281 -5.96875 3.53125 -6 C 3.570312 -6.039062 3.625 -6.0625 3.6875 -6.0625 L 4.5625 -6.0625 C 4.625 -6.0625 4.675781 -6.039062 4.71875 -6 C 4.757812 -5.96875 4.78125 -5.921875 4.78125 -5.859375 L 4.78125 -0.21875 C 4.78125 -0.15625 4.757812 -0.101562 4.71875 -0.0625 C 4.675781 -0.0195312 4.625 0 4.5625 0 L 3.75 0 C 3.6875 0 3.632812 -0.0195312 3.59375 -0.0625 C 3.550781 -0.101562 3.53125 -0.15625 3.53125 -0.21875 L 3.53125 -0.5 C 3.394531 -0.332031 3.21875 -0.191406 3 -0.078125 C 2.78125 0.0234375 2.507812 0.078125 2.1875 0.078125 Z M 2.578125 -0.9375 C 2.785156 -0.9375 2.953125 -0.984375 3.078125 -1.078125 C 3.210938 -1.179688 3.3125 -1.304688 3.375 -1.453125 C 3.4375 -1.597656 3.46875 -1.757812 3.46875 -1.9375 C 3.476562 -2.039062 3.484375 -2.144531 3.484375 -2.25 C 3.484375 -2.363281 3.476562 -2.472656 3.46875 -2.578125 C 3.46875 -2.734375 3.429688 -2.878906 3.359375 -3.015625 C 3.296875 -3.160156 3.203125 -3.273438 3.078125 -3.359375 C 2.953125 -3.453125 2.785156 -3.5 2.578125 -3.5 C 2.359375 -3.5 2.1875 -3.453125 2.0625 -3.359375 C 1.9375 -3.265625 1.847656 -3.140625 1.796875 -2.984375 C 1.742188 -2.835938 1.710938 -2.671875 1.703125 -2.484375 C 1.691406 -2.304688 1.691406 -2.128906 1.703125 -1.953125 C 1.710938 -1.773438 1.742188 -1.609375 1.796875 -1.453125 C 1.847656 -1.296875 1.9375 -1.171875 2.0625 -1.078125 C 2.1875 -0.984375 2.359375 -0.9375 2.578125 -0.9375 Z M 2.578125 -0.9375 "/></g></g></g><g fill="#ffffff" fill-opacity="1"><g transform="translate(51.93115, 17.363877)"><g><path d="M 1.84375 0.078125 C 1.539062 0.078125 1.269531 0.0195312 1.03125 -0.09375 C 0.789062 -0.207031 0.597656 -0.363281 0.453125 -0.5625 C 0.316406 -0.757812 0.25 -0.984375 0.25 -1.234375 C 0.25 -1.640625 0.410156 -1.957031 0.734375 -2.1875 C 1.066406 -2.414062 1.5 -2.578125 2.03125 -2.671875 L 3.15625 -2.828125 L 3.15625 -2.984375 C 3.15625 -3.203125 3.101562 -3.367188 3 -3.484375 C 2.894531 -3.609375 2.71875 -3.671875 2.46875 -3.671875 C 2.269531 -3.671875 2.113281 -3.632812 2 -3.5625 C 1.894531 -3.488281 1.8125 -3.390625 1.75 -3.265625 C 1.707031 -3.191406 1.640625 -3.15625 1.546875 -3.15625 L 0.734375 -3.15625 C 0.671875 -3.15625 0.617188 -3.171875 0.578125 -3.203125 C 0.546875 -3.242188 0.535156 -3.289062 0.546875 -3.34375 C 0.546875 -3.445312 0.582031 -3.5625 0.65625 -3.6875 C 0.726562 -3.820312 0.84375 -3.953125 1 -4.078125 C 1.15625 -4.203125 1.351562 -4.304688 1.59375 -4.390625 C 1.832031 -4.484375 2.125 -4.53125 2.46875 -4.53125 C 2.832031 -4.53125 3.140625 -4.484375 3.390625 -4.390625 C 3.648438 -4.304688 3.859375 -4.1875 4.015625 -4.03125 C 4.171875 -3.882812 4.285156 -3.707031 4.359375 -3.5 C 4.429688 -3.300781 4.46875 -3.085938 4.46875 -2.859375 L 4.46875 -0.21875 C 4.46875 -0.15625 4.445312 -0.101562 4.40625 -0.0625 C 4.363281 -0.0195312 4.3125 0 4.25 0 L 3.40625 0 C 3.351562 0 3.304688 -0.0195312 3.265625 -0.0625 C 3.222656 -0.101562 3.203125 -0.15625 3.203125 -0.21875 L 3.203125 -0.53125 C 3.128906 -0.425781 3.03125 -0.320312 2.90625 -0.21875 C 2.78125 -0.125 2.628906 -0.0507812 2.453125 0 C 2.285156 0.0507812 2.082031 0.078125 1.84375 0.078125 Z M 2.1875 -0.796875 C 2.375 -0.796875 2.539062 -0.835938 2.6875 -0.921875 C 2.84375 -1.003906 2.960938 -1.125 3.046875 -1.28125 C 3.128906 -1.445312 3.171875 -1.660156 3.171875 -1.921875 L 3.171875 -2.0625 L 2.375 -1.9375 C 2.070312 -1.882812 1.847656 -1.804688 1.703125 -1.703125 C 1.566406 -1.597656 1.5 -1.472656 1.5 -1.328125 C 1.5 -1.210938 1.53125 -1.117188 1.59375 -1.046875 C 1.65625 -0.972656 1.738281 -0.910156 1.84375 -0.859375 C 1.957031 -0.816406 2.070312 -0.796875 2.1875 -0.796875 Z M 2.1875 -0.796875 "/></g></g></g></svg>