<svg xmlns="http://www.w3.org/2000/svg" xmlns:xlink="http://www.w3.org/1999/xlink" width="96" zoomAndPan="magnify" viewBox="0 0 72 30.000001" height="40" preserveAspectRatio="xMidYMid meet" version="1.0"><defs><g/><clipPath id="8b6a6b7e82"><path d="M 2.589844 7.441406 L 69.351562 7.441406 L 69.351562 21.578125 L 2.589844 21.578125 Z M 2.589844 7.441406 " clip-rule="nonzero"/></clipPath><clipPath id="50c87778fe"><path d="M 9.707031 21.578125 L 69.351562 21.578125 L 69.351562 7.441406 L 9.707031 7.441406 L 2.640625 14.511719 Z M 9.707031 21.578125 " clip-rule="nonzero"/></clipPath><clipPath id="bde0cc17fa"><path d="M 2.574219 7.789062 L 69.339844 7.789062 L 69.339844 21.578125 L 2.574219 21.578125 Z M 2.574219 7.789062 " clip-rule="nonzero"/></clipPath><clipPath id="f2b98e93ee"><path d="M 9.71875 21.578125 L 69.339844 21.578125 L 69.339844 7.449219 L 9.71875 7.449219 L 2.652344 14.511719 Z M 9.71875 21.578125 " clip-rule="nonzero"/></clipPath></defs><g clip-path="url(#8b6a6b7e82)"><g clip-path="url(#50c87778fe)"><path fill="#f62d51" d="M 69.351562 21.578125 L 2.648438 21.578125 L 2.648438 7.441406 L 69.351562 7.441406 Z M 69.351562 21.578125 " fill-opacity="1" fill-rule="nonzero"/></g></g><g clip-path="url(#bde0cc17fa)"><g clip-path="url(#f2b98e93ee)"><path stroke-linecap="butt" transform="matrix(-0.725806, 0, 0, -0.725806, 69.340534, 21.578745)" fill="none" stroke-linejoin="miter" d="M 82.14557 0.000854268 L 0.000951384 0.000854268 L 0.000951384 19.467347 L 82.14557 19.467347 L 91.881508 9.736792 Z M 82.14557 0.000854268 " stroke="#000000" stroke-width="2" stroke-opacity="1" stroke-miterlimit="4"/></g></g><path stroke-linecap="butt" transform="matrix(0.711937, 0, 0, 0.711937, -9.38296, 8.820638)" fill="none" stroke-linejoin="miter" d="M 35.269321 11.741283 C 35.796053 11.993676 36.432521 12.119872 37.178725 12.119872 C 37.721918 12.119872 38.210243 12.054031 38.6437 11.916861 C 39.082643 11.779691 39.461232 11.587653 39.779466 11.329774 C 40.0977 11.071895 40.350093 10.775608 40.531157 10.42994 C 40.712221 10.084272 40.805497 9.700196 40.810983 9.277713 C 40.821957 9.200898 40.80001 9.14603 40.745142 9.096649 C 40.695761 9.047267 40.635406 9.02532 40.564078 9.02532 L 39.181405 9.02532 C 39.08813 9.02532 39.011315 9.047267 38.95096 9.091162 C 38.896092 9.135056 38.852198 9.211871 38.819277 9.327094 C 38.709541 9.793471 38.512017 10.117192 38.226703 10.29277 C 37.94139 10.468347 37.595722 10.556136 37.178725 10.556136 C 36.690401 10.556136 36.300838 10.424453 36.010038 10.150113 C 35.724725 9.88126 35.571095 9.431343 35.543661 8.805848 C 35.521714 8.119999 35.521714 7.445123 35.543661 6.792195 C 35.571095 6.1667 35.724725 5.72227 36.010038 5.44793 C 36.300838 5.173591 36.690401 5.036421 37.178725 5.036421 C 37.595722 5.036421 37.94139 5.124209 38.221216 5.2943 C 38.501043 5.469877 38.704054 5.793598 38.819277 6.276436 C 38.852198 6.386172 38.896092 6.468474 38.95096 6.512368 C 39.011315 6.556263 39.08813 6.57821 39.181405 6.57821 L 40.564078 6.57821 C 40.635406 6.57821 40.695761 6.550776 40.745142 6.501395 C 40.80001 6.4575 40.821957 6.397146 40.810983 6.325817 C 40.805497 5.903334 40.712221 5.519259 40.531157 5.173591 C 40.350093 4.827923 40.0977 4.526149 39.779466 4.273756 C 39.461232 4.015877 39.082643 3.818352 38.6437 3.686669 C 38.210243 3.549499 37.721918 3.478171 37.178725 3.478171 C 36.443495 3.478171 35.807027 3.609854 35.280295 3.862247 C 34.753562 4.120126 34.342053 4.487741 34.051253 4.976066 C 33.760453 5.458904 33.595849 6.045991 33.562928 6.73184 C 33.557441 7.077508 33.551954 7.43415 33.551954 7.812739 C 33.551954 8.185841 33.557441 8.542482 33.562928 8.866203 C 33.595849 9.563026 33.754966 10.1556 34.040279 10.638438 C 34.331079 11.121276 34.742589 11.488891 35.269321 11.741283 Z M 42.720388 11.872967 C 43.060569 12.03757 43.439158 12.119872 43.861641 12.119872 C 44.190849 12.119872 44.476162 12.081465 44.723068 11.999163 C 44.964487 11.922348 45.172985 11.812612 45.348562 11.680929 C 45.52414 11.549246 45.666796 11.406589 45.771046 11.258446 L 45.771046 11.702876 C 45.771046 11.790665 45.798479 11.861993 45.853347 11.916861 C 45.908215 11.971729 45.974057 11.999163 46.056359 11.999163 L 47.246993 11.999163 C 47.323808 11.999163 47.395137 11.971729 47.450005 11.916861 C 47.504873 11.861993 47.532307 11.790665 47.532307 11.702876 L 47.532307 7.993803 C 47.532307 7.664595 47.482925 7.357335 47.384163 7.077508 C 47.285401 6.792195 47.126284 6.539802 46.901325 6.325817 C 46.681853 6.106346 46.391053 5.941742 46.034412 5.821032 C 45.672283 5.700323 45.244313 5.639968 44.739528 5.639968 C 44.25669 5.639968 43.845181 5.700323 43.504999 5.821032 C 43.170305 5.941742 42.890478 6.089885 42.671007 6.270949 C 42.457022 6.446527 42.297905 6.633078 42.193656 6.819629 C 42.089406 7.000693 42.034539 7.15981 42.034539 7.29698 C 42.029052 7.368308 42.050999 7.428663 42.094893 7.483531 C 42.144274 7.532912 42.210116 7.560346 42.297905 7.560346 L 43.439158 7.560346 C 43.570841 7.560346 43.664116 7.505478 43.729958 7.401229 C 43.817747 7.236625 43.938456 7.099455 44.092086 6.995206 C 44.251203 6.890957 44.459702 6.841576 44.728555 6.841576 C 45.085196 6.841576 45.337589 6.923878 45.480245 7.093969 C 45.622902 7.258572 45.69423 7.499991 45.69423 7.812739 L 45.69423 8.026724 L 44.125007 8.257169 C 43.373316 8.372392 42.769769 8.59735 42.308878 8.926558 C 41.847988 9.255766 41.617542 9.705683 41.617542 10.270823 C 41.617542 10.616491 41.716304 10.929238 41.919316 11.209064 C 42.11684 11.488891 42.385693 11.708363 42.720388 11.872967 Z M 45.046789 10.704279 C 44.843777 10.814015 44.607845 10.87437 44.344479 10.87437 C 44.174388 10.87437 44.015271 10.841449 43.867128 10.786581 C 43.718984 10.726226 43.598275 10.638438 43.504999 10.534189 C 43.417211 10.424453 43.36783 10.29277 43.36783 10.139139 C 43.36783 9.930641 43.472079 9.755064 43.669603 9.612407 C 43.867128 9.469751 44.179875 9.360015 44.607845 9.288686 L 45.721664 9.107622 L 45.721664 9.310634 C 45.721664 9.661788 45.66131 9.958075 45.5406 10.188521 C 45.419891 10.418966 45.255287 10.589057 45.046789 10.704279 Z M 49.063122 11.916861 C 49.123477 11.971729 49.194805 11.999163 49.27162 11.999163 L 50.544557 11.999163 C 50.632345 11.999163 50.703674 11.971729 50.758542 11.916861 C 50.818896 11.861993 50.84633 11.790665 50.84633 11.702876 L 50.84633 8.421773 C 50.84633 7.99929 50.956066 7.670082 51.175538 7.43415 C 51.39501 7.198218 51.691297 7.082995 52.069885 7.082995 C 52.459448 7.082995 52.755735 7.198218 52.958746 7.43415 C 53.167244 7.670082 53.266007 7.99929 53.266007 8.421773 L 53.266007 11.702876 C 53.266007 11.790665 53.298927 11.861993 53.353795 11.916861 C 53.408663 11.971729 53.479992 11.999163 53.56778 11.999163 L 54.840717 11.999163 C 54.928505 11.999163 54.999834 11.971729 55.054702 11.916861 C 55.10957 11.861993 55.14249 11.790665 55.14249 11.702876 L 55.14249 8.350445 C 55.14249 7.774331 55.038241 7.286006 54.840717 6.879984 C 54.637705 6.479448 54.357879 6.172187 54.001237 5.958202 C 53.639109 5.744217 53.227599 5.639968 52.750248 5.639968 C 52.289357 5.639968 51.894308 5.72227 51.559614 5.892361 C 51.230406 6.056964 50.956066 6.270949 50.747568 6.528829 L 50.747568 6.056964 C 50.747568 5.969176 50.720134 5.897847 50.665266 5.842979 C 50.610398 5.788112 50.53907 5.760678 50.451281 5.760678 L 49.27162 5.760678 C 49.194805 5.760678 49.123477 5.788112 49.063122 5.842979 C 49.002767 5.897847 48.975333 5.969176 48.975333 6.056964 L 48.975333 11.702876 C 48.975333 11.790665 49.002767 11.861993 49.063122 11.916861 Z M 57.809072 11.796151 C 58.253503 12.010136 58.774748 12.119872 59.361835 12.119872 C 59.795292 12.119872 60.179368 12.070491 60.508575 11.971729 C 60.84327 11.872967 61.123096 11.741283 61.359028 11.57668 C 61.589474 11.412076 61.781512 11.231012 61.929655 11.044461 C 62.077798 10.846936 62.187534 10.660385 62.253376 10.473834 C 62.330191 10.29277 62.368599 10.133653 62.374085 9.996483 C 62.385059 9.908694 62.357625 9.837366 62.291783 9.782498 C 62.231429 9.72763 62.154614 9.694709 62.077798 9.694709 L 60.793889 9.694709 C 60.7061 9.694709 60.640258 9.716656 60.596364 9.760551 C 60.55247 9.798958 60.508575 9.859313 60.470168 9.947102 C 60.365919 10.226928 60.228749 10.42994 60.064145 10.550649 C 59.894054 10.671359 59.669096 10.726226 59.389269 10.726226 C 59.027141 10.726226 58.747314 10.616491 58.538816 10.391532 C 58.335805 10.166573 58.226069 9.804445 58.215095 9.310634 C 58.198635 9.052754 58.198635 8.772928 58.215095 8.46018 C 58.226069 7.971856 58.335805 7.609727 58.538816 7.379282 C 58.747314 7.148837 59.027141 7.033614 59.389269 7.033614 C 59.652635 7.033614 59.872107 7.093969 60.047685 7.214678 C 60.223262 7.329901 60.365919 7.532912 60.470168 7.812739 C 60.508575 7.900527 60.55247 7.966369 60.596364 8.004776 C 60.640258 8.043184 60.7061 8.065131 60.793889 8.065131 L 62.077798 8.065131 C 62.154614 8.065131 62.231429 8.037697 62.291783 7.982829 C 62.357625 7.922475 62.385059 7.851146 62.374085 7.763358 C 62.368599 7.582293 62.302757 7.368308 62.182048 7.126889 C 62.061338 6.88547 61.885761 6.655025 61.644342 6.430066 C 61.402923 6.199621 61.095662 6.01307 60.72256 5.864927 C 60.343971 5.711296 59.894054 5.639968 59.361835 5.639968 C 58.774748 5.639968 58.253503 5.749704 57.803586 5.963689 C 57.353669 6.177674 57.008 6.490421 56.755608 6.907418 C 56.503215 7.318927 56.366046 7.812739 56.338612 8.399826 C 56.333125 8.526022 56.327638 8.690626 56.327638 8.88815 C 56.327638 9.080188 56.333125 9.244792 56.338612 9.370988 C 56.366046 9.947102 56.503215 10.440913 56.761095 10.852423 C 57.018974 11.263932 57.370129 11.582166 57.809072 11.796151 Z M 64.135346 11.351721 C 64.673052 11.861993 65.402796 12.119872 66.324577 12.119872 C 66.790955 12.119872 67.196978 12.059518 67.553619 11.938808 C 67.910261 11.818099 68.206548 11.669955 68.447967 11.488891 C 68.689386 11.307827 68.87045 11.126762 68.991159 10.940211 C 69.117356 10.748174 69.183197 10.589057 69.194171 10.451887 C 69.199658 10.380558 69.17771 10.320204 69.122843 10.276309 C 69.073461 10.226928 69.013107 10.199494 68.941778 10.199494 L 67.668842 10.199494 C 67.581053 10.199494 67.515212 10.210468 67.471317 10.232415 C 67.427423 10.248875 67.367068 10.303743 67.29574 10.391532 C 67.257332 10.4464 67.196978 10.512242 67.114676 10.589057 C 67.026887 10.665872 66.922638 10.7372 66.790955 10.797555 C 66.664759 10.852423 66.505642 10.885344 66.313604 10.885344 C 66.066698 10.885344 65.852713 10.819502 65.682622 10.693306 C 65.512532 10.567109 65.380849 10.397019 65.29306 10.183034 C 65.205271 9.969049 65.15589 9.738604 65.150403 9.480724 L 65.150403 9.392935 L 69.062488 9.392935 C 69.150276 9.392935 69.221605 9.365501 69.276473 9.305147 C 69.336827 9.244792 69.364261 9.17895 69.364261 9.096649 L 69.364261 8.822309 C 69.364261 8.202301 69.249039 7.659108 69.018593 7.181757 C 68.793635 6.704406 68.453454 6.331304 68.003536 6.056964 C 67.553619 5.777138 66.993966 5.639968 66.313604 5.639968 C 65.715543 5.639968 65.188811 5.755191 64.738894 5.99661 C 64.294463 6.232542 63.943309 6.572723 63.696403 7.011667 C 63.449497 7.456097 63.30684 7.993803 63.279406 8.613811 L 63.279406 9.118596 C 63.30684 10.095245 63.592154 10.841449 64.135346 11.351721 Z M 67.487778 8.29009 L 65.150403 8.29009 L 65.150403 8.257169 C 65.150403 7.977342 65.194298 7.730437 65.287573 7.521939 C 65.380849 7.307954 65.512532 7.14335 65.682622 7.02264 C 65.852713 6.901931 66.066698 6.841576 66.313604 6.841576 C 66.56051 6.841576 66.774495 6.901931 66.950072 7.02264 C 67.125649 7.14335 67.257332 7.307954 67.350608 7.521939 C 67.443883 7.730437 67.487778 7.977342 67.487778 8.257169 Z M 70.653658 11.916861 C 70.714013 11.971729 70.785341 11.999163 70.87313 11.999163 L 72.074738 11.999163 C 72.162527 11.999163 72.233855 11.971729 72.288723 11.916861 C 72.343591 11.861993 72.371025 11.790665 72.371025 11.702876 L 72.371025 3.779945 C 72.371025 3.692156 72.343591 3.620828 72.288723 3.56596 C 72.233855 3.511092 72.162527 3.478171 72.074738 3.478171 L 70.87313 3.478171 C 70.785341 3.478171 70.714013 3.511092 70.653658 3.56596 C 70.59879 3.620828 70.571356 3.692156 70.571356 3.779945 L 70.571356 11.702876 C 70.571356 11.790665 70.59879 11.861993 70.653658 11.916861 Z M 74.582203 11.872967 C 74.916897 12.03757 75.300973 12.119872 75.723456 12.119872 C 76.052664 12.119872 76.337977 12.081465 76.579396 11.999163 C 76.826302 11.922348 77.0348 11.812612 77.210377 11.680929 C 77.385955 11.549246 77.528612 11.406589 77.627374 11.258446 L 77.627374 11.702876 C 77.627374 11.790665 77.654808 11.861993 77.709676 11.916861 C 77.770031 11.971729 77.835872 11.999163 77.918174 11.999163 L 79.103322 11.999163 C 79.185623 11.999163 79.251465 11.971729 79.306333 11.916861 C 79.366688 11.861993 79.394122 11.790665 79.394122 11.702876 L 79.394122 7.993803 C 79.394122 7.664595 79.34474 7.357335 79.245978 7.077508 C 79.141729 6.792195 78.982612 6.539802 78.76314 6.325817 C 78.543669 6.106346 78.252868 5.941742 77.89074 5.821032 C 77.534098 5.700323 77.100642 5.639968 76.595857 5.639968 C 76.118505 5.639968 75.706996 5.700323 75.366815 5.821032 C 75.026633 5.941742 74.746807 6.089885 74.532822 6.270949 C 74.318837 6.446527 74.15972 6.633078 74.049984 6.819629 C 73.951222 7.000693 73.896354 7.15981 73.896354 7.29698 C 73.890867 7.368308 73.907327 7.428663 73.956708 7.483531 C 74.00609 7.532912 74.071931 7.560346 74.15972 7.560346 L 75.300973 7.560346 C 75.427169 7.560346 75.525932 7.505478 75.591773 7.401229 C 75.679562 7.236625 75.800271 7.099455 75.953902 6.995206 C 76.107532 6.890957 76.321517 6.841576 76.584883 6.841576 C 76.947011 6.841576 77.199404 6.923878 77.342061 7.093969 C 77.484717 7.258572 77.556046 7.499991 77.556046 7.812739 L 77.556046 8.026724 L 75.986822 8.257169 C 75.235131 8.372392 74.626097 8.59735 74.165207 8.926558 C 73.709803 9.255766 73.479357 9.705683 73.479357 10.270823 C 73.479357 10.616491 73.57812 10.929238 73.775644 11.209064 C 73.978656 11.488891 74.247508 11.708363 74.582203 11.872967 Z M 76.908604 10.704279 C 76.700106 10.814015 76.464173 10.87437 76.200807 10.87437 C 76.036203 10.87437 75.877086 10.841449 75.728943 10.786581 C 75.5808 10.726226 75.46009 10.638438 75.366815 10.534189 C 75.273539 10.424453 75.229645 10.29277 75.229645 10.139139 C 75.229645 9.930641 75.328407 9.755064 75.531418 9.612407 C 75.728943 9.469751 76.04169 9.360015 76.464173 9.288686 L 77.583479 9.107622 L 77.583479 9.310634 C 77.583479 9.661788 77.523125 9.958075 77.402415 10.188521 C 77.281706 10.418966 77.117102 10.589057 76.908604 10.704279 Z M 82.093624 11.922348 C 82.406372 12.054031 82.763013 12.119872 83.163549 12.119872 C 83.618953 12.119872 83.997542 12.043057 84.299316 11.88394 C 84.606576 11.73031 84.858969 11.532785 85.056493 11.291366 L 85.056493 11.702876 C 85.056493 11.790665 85.083927 11.861993 85.138795 11.916861 C 85.19915 11.971729 85.264992 11.999163 85.347294 11.999163 L 86.494034 11.999163 C 86.587309 11.999163 86.658637 11.971729 86.713505 11.916861 C 86.768373 11.861993 86.795807 11.790665 86.795807 11.702876 L 86.795807 3.779945 C 86.795807 3.692156 86.768373 3.620828 86.713505 3.56596 C 86.658637 3.511092 86.587309 3.478171 86.494034 3.478171 L 85.259505 3.478171 C 85.171716 3.478171 85.100388 3.511092 85.04552 3.56596 C 84.990652 3.620828 84.963218 3.692156 84.963218 3.779945 L 84.963218 6.386172 C 84.77118 6.1667 84.524274 5.991123 84.227988 5.848466 C 83.931701 5.711296 83.580546 5.639968 83.163549 5.639968 C 82.763013 5.639968 82.406372 5.711296 82.088138 5.848466 C 81.769904 5.991123 81.506537 6.183161 81.292553 6.44104 C 81.084054 6.693433 80.91945 6.98972 80.798741 7.335388 C 80.683518 7.675569 80.623164 8.054158 80.606703 8.471154 C 80.59573 8.619297 80.59573 8.750981 80.59573 8.87169 C 80.59573 8.997886 80.59573 9.135056 80.606703 9.288686 C 80.62865 9.71117 80.694492 10.095245 80.809715 10.4464 C 80.91945 10.797555 81.084054 11.093842 81.298039 11.346234 C 81.517511 11.598627 81.780877 11.790665 82.093624 11.922348 Z M 84.430999 10.473834 C 84.249935 10.611004 84.008516 10.676845 83.712229 10.676845 C 83.410455 10.676845 83.169036 10.611004 82.993459 10.484808 C 82.817881 10.347638 82.691685 10.177547 82.61487 9.963562 C 82.538055 9.74409 82.49416 9.508158 82.4777 9.250279 C 82.46124 9.003373 82.46124 8.756467 82.4777 8.509562 C 82.49416 8.251682 82.538055 8.01575 82.61487 7.801765 C 82.691685 7.582293 82.817881 7.412203 82.993459 7.28052 C 83.169036 7.148837 83.410455 7.082995 83.712229 7.082995 C 84.003029 7.082995 84.233474 7.14335 84.409052 7.275033 C 84.584629 7.401229 84.721799 7.560346 84.809588 7.757871 C 84.902863 7.955395 84.952244 8.163894 84.963218 8.388852 C 84.979678 8.531509 84.985165 8.679652 84.985165 8.833282 C 84.985165 8.981426 84.979678 9.135056 84.963218 9.288686 C 84.952244 9.524619 84.90835 9.749577 84.826048 9.963562 C 84.738259 10.166573 84.606576 10.342151 84.430999 10.473834 Z M 89.006985 11.872967 C 89.34168 12.03757 89.720269 12.119872 90.148239 12.119872 C 90.47196 12.119872 90.76276 12.081465 91.004179 11.999163 C 91.251084 11.922348 91.459583 11.812612 91.63516 11.680929 C 91.810737 11.549246 91.947907 11.406589 92.052156 11.258446 L 92.052156 11.702876 C 92.052156 11.790665 92.07959 11.861993 92.134458 11.916861 C 92.194813 11.971729 92.260655 11.999163 92.342956 11.999163 L 93.528104 11.999163 C 93.610406 11.999163 93.676247 11.971729 93.731115 11.916861 C 93.79147 11.861993 93.818904 11.790665 93.818904 11.702876 L 93.818904 7.993803 C 93.818904 7.664595 93.769523 7.357335 93.665274 7.077508 C 93.566512 6.792195 93.407395 6.539802 93.187923 6.325817 C 92.968451 6.106346 92.677651 5.941742 92.315522 5.821032 C 91.958881 5.700323 91.525424 5.639968 91.020639 5.639968 C 90.543288 5.639968 90.131778 5.700323 89.791597 5.821032 C 89.451416 5.941742 89.171589 6.089885 88.957604 6.270949 C 88.743619 6.446527 88.584502 6.633078 88.474766 6.819629 C 88.370517 7.000693 88.321136 7.15981 88.321136 7.29698 C 88.315649 7.368308 88.33211 7.428663 88.381491 7.483531 C 88.430872 7.532912 88.496714 7.560346 88.584502 7.560346 L 89.725756 7.560346 C 89.851952 7.560346 89.950714 7.505478 90.016556 7.401229 C 90.104344 7.236625 90.225054 7.099455 90.378684 6.995206 C 90.532314 6.890957 90.746299 6.841576 91.009665 6.841576 C 91.371794 6.841576 91.6187 6.923878 91.761356 7.093969 C 91.9095 7.258572 91.980828 7.499991 91.980828 7.812739 L 91.980828 8.026724 L 90.411605 8.257169 C 89.659914 8.372392 89.05088 8.59735 88.589989 8.926558 C 88.129098 9.255766 87.90414 9.705683 87.90414 10.270823 C 87.90414 10.616491 88.002902 10.929238 88.200427 11.209064 C 88.403438 11.488891 88.672291 11.708363 89.006985 11.872967 Z M 91.333386 10.704279 C 91.124888 10.814015 90.888956 10.87437 90.62559 10.87437 C 90.460986 10.87437 90.301869 10.841449 90.153725 10.786581 C 90.005582 10.726226 89.884873 10.638438 89.791597 10.534189 C 89.698322 10.424453 89.654427 10.29277 89.654427 10.139139 C 89.654427 9.930641 89.753189 9.755064 89.950714 9.612407 C 90.153725 9.469751 90.466473 9.360015 90.888956 9.288686 L 92.008262 9.107622 L 92.008262 9.310634 C 92.008262 9.661788 91.947907 9.958075 91.827198 10.188521 C 91.706488 10.418966 91.541884 10.589057 91.333386 10.704279 Z M 91.333386 10.704279 " stroke="#000000" stroke-width="1.77" stroke-opacity="1" stroke-miterlimit="4"/><g fill="#ffffff" fill-opacity="1"><g transform="translate(14.077578, 17.363877)"><g><path d="M 3.015625 0.078125 C 2.484375 0.078125 2.023438 -0.0078125 1.640625 -0.1875 C 1.265625 -0.363281 0.972656 -0.625 0.765625 -0.96875 C 0.566406 -1.3125 0.457031 -1.734375 0.4375 -2.234375 C 0.425781 -2.460938 0.421875 -2.710938 0.421875 -2.984375 C 0.421875 -3.253906 0.425781 -3.507812 0.4375 -3.75 C 0.457031 -4.238281 0.570312 -4.65625 0.78125 -5 C 0.988281 -5.34375 1.28125 -5.601562 1.65625 -5.78125 C 2.03125 -5.96875 2.484375 -6.0625 3.015625 -6.0625 C 3.398438 -6.0625 3.742188 -6.015625 4.046875 -5.921875 C 4.359375 -5.828125 4.628906 -5.6875 4.859375 -5.5 C 5.085938 -5.320312 5.265625 -5.109375 5.390625 -4.859375 C 5.523438 -4.617188 5.59375 -4.347656 5.59375 -4.046875 C 5.601562 -3.992188 5.585938 -3.945312 5.546875 -3.90625 C 5.515625 -3.875 5.472656 -3.859375 5.421875 -3.859375 L 4.4375 -3.859375 C 4.363281 -3.859375 4.304688 -3.875 4.265625 -3.90625 C 4.234375 -3.9375 4.203125 -3.992188 4.171875 -4.078125 C 4.085938 -4.421875 3.945312 -4.648438 3.75 -4.765625 C 3.550781 -4.890625 3.304688 -4.953125 3.015625 -4.953125 C 2.660156 -4.953125 2.378906 -4.851562 2.171875 -4.65625 C 1.972656 -4.46875 1.863281 -4.148438 1.84375 -3.703125 C 1.832031 -3.242188 1.832031 -2.769531 1.84375 -2.28125 C 1.863281 -1.832031 1.972656 -1.507812 2.171875 -1.3125 C 2.378906 -1.125 2.660156 -1.03125 3.015625 -1.03125 C 3.304688 -1.03125 3.550781 -1.09375 3.75 -1.21875 C 3.957031 -1.34375 4.097656 -1.570312 4.171875 -1.90625 C 4.203125 -1.988281 4.234375 -2.046875 4.265625 -2.078125 C 4.304688 -2.109375 4.363281 -2.125 4.4375 -2.125 L 5.421875 -2.125 C 5.472656 -2.125 5.515625 -2.101562 5.546875 -2.0625 C 5.585938 -2.03125 5.601562 -1.988281 5.59375 -1.9375 C 5.59375 -1.632812 5.523438 -1.359375 5.390625 -1.109375 C 5.265625 -0.867188 5.085938 -0.65625 4.859375 -0.46875 C 4.628906 -0.289062 4.359375 -0.15625 4.046875 -0.0625 C 3.742188 0.03125 3.398438 0.078125 3.015625 0.078125 Z M 3.015625 0.078125 "/></g></g></g><g fill="#ffffff" fill-opacity="1"><g transform="translate(19.998082, 17.363877)"><g><path d="M 1.84375 0.078125 C 1.539062 0.078125 1.269531 0.0195312 1.03125 -0.09375 C 0.789062 -0.207031 0.597656 -0.363281 0.453125 -0.5625 C 0.316406 -0.757812 0.25 -0.984375 0.25 -1.234375 C 0.25 -1.640625 0.410156 -1.957031 0.734375 -2.1875 C 1.066406 -2.414062 1.5 -2.578125 2.03125 -2.671875 L 3.15625 -2.828125 L 3.15625 -2.984375 C 3.15625 -3.203125 3.101562 -3.367188 3 -3.484375 C 2.894531 -3.609375 2.71875 -3.671875 2.46875 -3.671875 C 2.269531 -3.671875 2.113281 -3.632812 2 -3.5625 C 1.894531 -3.488281 1.8125 -3.390625 1.75 -3.265625 C 1.707031 -3.191406 1.640625 -3.15625 1.546875 -3.15625 L 0.734375 -3.15625 C 0.671875 -3.15625 0.617188 -3.171875 0.578125 -3.203125 C 0.546875 -3.242188 0.535156 -3.289062 0.546875 -3.34375 C 0.546875 -3.445312 0.582031 -3.5625 0.65625 -3.6875 C 0.726562 -3.820312 0.84375 -3.953125 1 -4.078125 C 1.15625 -4.203125 1.351562 -4.304688 1.59375 -4.390625 C 1.832031 -4.484375 2.125 -4.53125 2.46875 -4.53125 C 2.832031 -4.53125 3.140625 -4.484375 3.390625 -4.390625 C 3.648438 -4.304688 3.859375 -4.1875 4.015625 -4.03125 C 4.171875 -3.882812 4.285156 -3.707031 4.359375 -3.5 C 4.429688 -3.300781 4.46875 -3.085938 4.46875 -2.859375 L 4.46875 -0.21875 C 4.46875 -0.15625 4.445312 -0.101562 4.40625 -0.0625 C 4.363281 -0.0195312 4.3125 0 4.25 0 L 3.40625 0 C 3.351562 0 3.304688 -0.0195312 3.265625 -0.0625 C 3.222656 -0.101562 3.203125 -0.15625 3.203125 -0.21875 L 3.203125 -0.53125 C 3.128906 -0.425781 3.03125 -0.320312 2.90625 -0.21875 C 2.78125 -0.125 2.628906 -0.0507812 2.453125 0 C 2.285156 0.0507812 2.082031 0.078125 1.84375 0.078125 Z M 2.1875 -0.796875 C 2.375 -0.796875 2.539062 -0.835938 2.6875 -0.921875 C 2.84375 -1.003906 2.960938 -1.125 3.046875 -1.28125 C 3.128906 -1.445312 3.171875 -1.660156 3.171875 -1.921875 L 3.171875 -2.0625 L 2.375 -1.9375 C 2.070312 -1.882812 1.847656 -1.804688 1.703125 -1.703125 C 1.566406 -1.597656 1.5 -1.472656 1.5 -1.328125 C 1.5 -1.210938 1.53125 -1.117188 1.59375 -1.046875 C 1.65625 -0.972656 1.738281 -0.910156 1.84375 -0.859375 C 1.957031 -0.816406 2.070312 -0.796875 2.1875 -0.796875 Z M 2.1875 -0.796875 "/></g></g></g><g fill="#ffffff" fill-opacity="1"><g transform="translate(24.953199, 17.363877)"><g><path d="M 0.75 0 C 0.6875 0 0.632812 -0.0195312 0.59375 -0.0625 C 0.550781 -0.101562 0.53125 -0.15625 0.53125 -0.21875 L 0.53125 -4.234375 C 0.53125 -4.296875 0.550781 -4.34375 0.59375 -4.375 C 0.632812 -4.414062 0.6875 -4.4375 0.75 -4.4375 L 1.578125 -4.4375 C 1.640625 -4.4375 1.691406 -4.414062 1.734375 -4.375 C 1.773438 -4.34375 1.796875 -4.296875 1.796875 -4.234375 L 1.796875 -3.890625 C 1.941406 -4.078125 2.128906 -4.226562 2.359375 -4.34375 C 2.597656 -4.46875 2.882812 -4.53125 3.21875 -4.53125 C 3.550781 -4.53125 3.847656 -4.453125 4.109375 -4.296875 C 4.367188 -4.148438 4.566406 -3.929688 4.703125 -3.640625 C 4.847656 -3.359375 4.921875 -3.007812 4.921875 -2.59375 L 4.921875 -0.21875 C 4.921875 -0.15625 4.898438 -0.101562 4.859375 -0.0625 C 4.816406 -0.0195312 4.765625 0 4.703125 0 L 3.796875 0 C 3.734375 0 3.679688 -0.0195312 3.640625 -0.0625 C 3.609375 -0.101562 3.59375 -0.15625 3.59375 -0.21875 L 3.59375 -2.546875 C 3.59375 -2.847656 3.519531 -3.082031 3.375 -3.25 C 3.226562 -3.414062 3.015625 -3.5 2.734375 -3.5 C 2.460938 -3.5 2.25 -3.414062 2.09375 -3.25 C 1.9375 -3.082031 1.859375 -2.847656 1.859375 -2.546875 L 1.859375 -0.21875 C 1.859375 -0.15625 1.835938 -0.101562 1.796875 -0.0625 C 1.765625 -0.0195312 1.71875 0 1.65625 0 Z M 0.75 0 "/></g></g></g><g fill="#ffffff" fill-opacity="1"><g transform="translate(30.361108, 17.363877)"><g><path d="M 2.515625 0.078125 C 2.097656 0.078125 1.726562 0.00390625 1.40625 -0.140625 C 1.09375 -0.296875 0.84375 -0.519531 0.65625 -0.8125 C 0.476562 -1.101562 0.382812 -1.457031 0.375 -1.875 C 0.363281 -1.96875 0.359375 -2.082031 0.359375 -2.21875 C 0.359375 -2.351562 0.363281 -2.46875 0.375 -2.5625 C 0.382812 -2.976562 0.476562 -3.332031 0.65625 -3.625 C 0.84375 -3.914062 1.09375 -4.140625 1.40625 -4.296875 C 1.726562 -4.453125 2.097656 -4.53125 2.515625 -4.53125 C 2.890625 -4.53125 3.210938 -4.476562 3.484375 -4.375 C 3.753906 -4.269531 3.972656 -4.132812 4.140625 -3.96875 C 4.316406 -3.800781 4.445312 -3.632812 4.53125 -3.46875 C 4.613281 -3.300781 4.660156 -3.148438 4.671875 -3.015625 C 4.671875 -2.953125 4.644531 -2.898438 4.59375 -2.859375 C 4.550781 -2.816406 4.503906 -2.796875 4.453125 -2.796875 L 3.53125 -2.796875 C 3.46875 -2.796875 3.421875 -2.8125 3.390625 -2.84375 C 3.359375 -2.875 3.332031 -2.921875 3.3125 -2.984375 C 3.238281 -3.179688 3.140625 -3.320312 3.015625 -3.40625 C 2.890625 -3.488281 2.726562 -3.53125 2.53125 -3.53125 C 2.28125 -3.53125 2.082031 -3.445312 1.9375 -3.28125 C 1.789062 -3.125 1.710938 -2.867188 1.703125 -2.515625 C 1.691406 -2.296875 1.691406 -2.097656 1.703125 -1.921875 C 1.710938 -1.566406 1.789062 -1.304688 1.9375 -1.140625 C 2.082031 -0.984375 2.28125 -0.90625 2.53125 -0.90625 C 2.738281 -0.90625 2.898438 -0.945312 3.015625 -1.03125 C 3.140625 -1.113281 3.238281 -1.257812 3.3125 -1.46875 C 3.332031 -1.53125 3.359375 -1.570312 3.390625 -1.59375 C 3.421875 -1.625 3.46875 -1.640625 3.53125 -1.640625 L 4.453125 -1.640625 C 4.503906 -1.640625 4.550781 -1.617188 4.59375 -1.578125 C 4.644531 -1.535156 4.671875 -1.484375 4.671875 -1.421875 C 4.660156 -1.328125 4.628906 -1.210938 4.578125 -1.078125 C 4.523438 -0.953125 4.445312 -0.820312 4.34375 -0.6875 C 4.238281 -0.550781 4.101562 -0.421875 3.9375 -0.296875 C 3.769531 -0.179688 3.566406 -0.0859375 3.328125 -0.015625 C 3.097656 0.046875 2.828125 0.078125 2.515625 0.078125 Z M 2.515625 0.078125 "/></g></g></g><g fill="#ffffff" fill-opacity="1"><g transform="translate(35.316224, 17.363877)"><g><path d="M 2.515625 0.078125 C 1.859375 0.078125 1.335938 -0.101562 0.953125 -0.46875 C 0.578125 -0.832031 0.375 -1.359375 0.34375 -2.046875 C 0.34375 -2.097656 0.34375 -2.160156 0.34375 -2.234375 C 0.34375 -2.304688 0.34375 -2.363281 0.34375 -2.40625 C 0.375 -2.851562 0.476562 -3.234375 0.65625 -3.546875 C 0.832031 -3.867188 1.078125 -4.113281 1.390625 -4.28125 C 1.710938 -4.445312 2.085938 -4.53125 2.515625 -4.53125 C 2.992188 -4.53125 3.394531 -4.429688 3.71875 -4.234375 C 4.039062 -4.035156 4.28125 -3.765625 4.4375 -3.421875 C 4.601562 -3.085938 4.6875 -2.703125 4.6875 -2.265625 L 4.6875 -2.0625 C 4.6875 -2.007812 4.664062 -1.960938 4.625 -1.921875 C 4.582031 -1.878906 4.53125 -1.859375 4.46875 -1.859375 L 1.6875 -1.859375 C 1.6875 -1.859375 1.6875 -1.847656 1.6875 -1.828125 C 1.6875 -1.816406 1.6875 -1.804688 1.6875 -1.796875 C 1.6875 -1.609375 1.71875 -1.4375 1.78125 -1.28125 C 1.84375 -1.132812 1.9375 -1.015625 2.0625 -0.921875 C 2.1875 -0.835938 2.335938 -0.796875 2.515625 -0.796875 C 2.648438 -0.796875 2.757812 -0.816406 2.84375 -0.859375 C 2.9375 -0.898438 3.015625 -0.945312 3.078125 -1 C 3.140625 -1.050781 3.1875 -1.097656 3.21875 -1.140625 C 3.269531 -1.203125 3.3125 -1.238281 3.34375 -1.25 C 3.375 -1.269531 3.421875 -1.28125 3.484375 -1.28125 L 4.390625 -1.28125 C 4.441406 -1.28125 4.484375 -1.257812 4.515625 -1.21875 C 4.554688 -1.1875 4.570312 -1.148438 4.5625 -1.109375 C 4.5625 -1.003906 4.515625 -0.882812 4.421875 -0.75 C 4.335938 -0.625 4.207031 -0.492188 4.03125 -0.359375 C 3.863281 -0.234375 3.648438 -0.128906 3.390625 -0.046875 C 3.140625 0.0351562 2.847656 0.078125 2.515625 0.078125 Z M 1.6875 -2.640625 L 3.34375 -2.640625 L 3.34375 -2.671875 C 3.34375 -2.867188 3.3125 -3.039062 3.25 -3.1875 C 3.1875 -3.34375 3.09375 -3.460938 2.96875 -3.546875 C 2.84375 -3.628906 2.691406 -3.671875 2.515625 -3.671875 C 2.335938 -3.671875 2.1875 -3.628906 2.0625 -3.546875 C 1.9375 -3.460938 1.84375 -3.34375 1.78125 -3.1875 C 1.71875 -3.039062 1.6875 -2.867188 1.6875 -2.671875 Z M 1.6875 -2.640625 "/></g></g></g><g fill="#ffffff" fill-opacity="1"><g transform="translate(40.322594, 17.363877)"><g><path d="M 0.75 0 C 0.6875 0 0.632812 -0.0195312 0.59375 -0.0625 C 0.550781 -0.101562 0.53125 -0.15625 0.53125 -0.21875 L 0.53125 -5.859375 C 0.53125 -5.921875 0.550781 -5.96875 0.59375 -6 C 0.632812 -6.039062 0.6875 -6.0625 0.75 -6.0625 L 1.609375 -6.0625 C 1.671875 -6.0625 1.722656 -6.039062 1.765625 -6 C 1.804688 -5.96875 1.828125 -5.921875 1.828125 -5.859375 L 1.828125 -0.21875 C 1.828125 -0.15625 1.804688 -0.101562 1.765625 -0.0625 C 1.722656 -0.0195312 1.671875 0 1.609375 0 Z M 0.75 0 "/></g></g></g><g fill="#ffffff" fill-opacity="1"><g transform="translate(42.680547, 17.363877)"><g><path d="M 1.84375 0.078125 C 1.539062 0.078125 1.269531 0.0195312 1.03125 -0.09375 C 0.789062 -0.207031 0.597656 -0.363281 0.453125 -0.5625 C 0.316406 -0.757812 0.25 -0.984375 0.25 -1.234375 C 0.25 -1.640625 0.410156 -1.957031 0.734375 -2.1875 C 1.066406 -2.414062 1.5 -2.578125 2.03125 -2.671875 L 3.15625 -2.828125 L 3.15625 -2.984375 C 3.15625 -3.203125 3.101562 -3.367188 3 -3.484375 C 2.894531 -3.609375 2.71875 -3.671875 2.46875 -3.671875 C 2.269531 -3.671875 2.113281 -3.632812 2 -3.5625 C 1.894531 -3.488281 1.8125 -3.390625 1.75 -3.265625 C 1.707031 -3.191406 1.640625 -3.15625 1.546875 -3.15625 L 0.734375 -3.15625 C 0.671875 -3.15625 0.617188 -3.171875 0.578125 -3.203125 C 0.546875 -3.242188 0.535156 -3.289062 0.546875 -3.34375 C 0.546875 -3.445312 0.582031 -3.5625 0.65625 -3.6875 C 0.726562 -3.820312 0.84375 -3.953125 1 -4.078125 C 1.15625 -4.203125 1.351562 -4.304688 1.59375 -4.390625 C 1.832031 -4.484375 2.125 -4.53125 2.46875 -4.53125 C 2.832031 -4.53125 3.140625 -4.484375 3.390625 -4.390625 C 3.648438 -4.304688 3.859375 -4.1875 4.015625 -4.03125 C 4.171875 -3.882812 4.285156 -3.707031 4.359375 -3.5 C 4.429688 -3.300781 4.46875 -3.085938 4.46875 -2.859375 L 4.46875 -0.21875 C 4.46875 -0.15625 4.445312 -0.101562 4.40625 -0.0625 C 4.363281 -0.0195312 4.3125 0 4.25 0 L 3.40625 0 C 3.351562 0 3.304688 -0.0195312 3.265625 -0.0625 C 3.222656 -0.101562 3.203125 -0.15625 3.203125 -0.21875 L 3.203125 -0.53125 C 3.128906 -0.425781 3.03125 -0.320312 2.90625 -0.21875 C 2.78125 -0.125 2.628906 -0.0507812 2.453125 0 C 2.285156 0.0507812 2.082031 0.078125 1.84375 0.078125 Z M 2.1875 -0.796875 C 2.375 -0.796875 2.539062 -0.835938 2.6875 -0.921875 C 2.84375 -1.003906 2.960938 -1.125 3.046875 -1.28125 C 3.128906 -1.445312 3.171875 -1.660156 3.171875 -1.921875 L 3.171875 -2.0625 L 2.375 -1.9375 C 2.070312 -1.882812 1.847656 -1.804688 1.703125 -1.703125 C 1.566406 -1.597656 1.5 -1.472656 1.5 -1.328125 C 1.5 -1.210938 1.53125 -1.117188 1.59375 -1.046875 C 1.65625 -0.972656 1.738281 -0.910156 1.84375 -0.859375 C 1.957031 -0.816406 2.070312 -0.796875 2.1875 -0.796875 Z M 2.1875 -0.796875 "/></g></g></g><g fill="#ffffff" fill-opacity="1"><g transform="translate(47.635664, 17.363877)"><g><path d="M 2.1875 0.078125 C 1.90625 0.078125 1.648438 0.03125 1.421875 -0.0625 C 1.203125 -0.15625 1.015625 -0.289062 0.859375 -0.46875 C 0.703125 -0.644531 0.582031 -0.859375 0.5 -1.109375 C 0.425781 -1.359375 0.382812 -1.632812 0.375 -1.9375 C 0.363281 -2.039062 0.359375 -2.132812 0.359375 -2.21875 C 0.359375 -2.3125 0.363281 -2.410156 0.375 -2.515625 C 0.382812 -2.804688 0.425781 -3.070312 0.5 -3.3125 C 0.582031 -3.5625 0.695312 -3.773438 0.84375 -3.953125 C 1 -4.140625 1.191406 -4.28125 1.421875 -4.375 C 1.648438 -4.476562 1.90625 -4.53125 2.1875 -4.53125 C 2.476562 -4.53125 2.726562 -4.476562 2.9375 -4.375 C 3.15625 -4.28125 3.332031 -4.15625 3.46875 -4 L 3.46875 -5.859375 C 3.46875 -5.921875 3.488281 -5.96875 3.53125 -6 C 3.570312 -6.039062 3.625 -6.0625 3.6875 -6.0625 L 4.5625 -6.0625 C 4.625 -6.0625 4.675781 -6.039062 4.71875 -6 C 4.757812 -5.96875 4.78125 -5.921875 4.78125 -5.859375 L 4.78125 -0.21875 C 4.78125 -0.15625 4.757812 -0.101562 4.71875 -0.0625 C 4.675781 -0.0195312 4.625 0 4.5625 0 L 3.75 0 C 3.6875 0 3.632812 -0.0195312 3.59375 -0.0625 C 3.550781 -0.101562 3.53125 -0.15625 3.53125 -0.21875 L 3.53125 -0.5 C 3.394531 -0.332031 3.21875 -0.191406 3 -0.078125 C 2.78125 0.0234375 2.507812 0.078125 2.1875 0.078125 Z M 2.578125 -0.9375 C 2.785156 -0.9375 2.953125 -0.984375 3.078125 -1.078125 C 3.210938 -1.179688 3.3125 -1.304688 3.375 -1.453125 C 3.4375 -1.597656 3.46875 -1.757812 3.46875 -1.9375 C 3.476562 -2.039062 3.484375 -2.144531 3.484375 -2.25 C 3.484375 -2.363281 3.476562 -2.472656 3.46875 -2.578125 C 3.46875 -2.734375 3.429688 -2.878906 3.359375 -3.015625 C 3.296875 -3.160156 3.203125 -3.273438 3.078125 -3.359375 C 2.953125 -3.453125 2.785156 -3.5 2.578125 -3.5 C 2.359375 -3.5 2.1875 -3.453125 2.0625 -3.359375 C 1.9375 -3.265625 1.847656 -3.140625 1.796875 -2.984375 C 1.742188 -2.835938 1.710938 -2.671875 1.703125 -2.484375 C 1.691406 -2.304688 1.691406 -2.128906 1.703125 -1.953125 C 1.710938 -1.773438 1.742188 -1.609375 1.796875 -1.453125 C 1.847656 -1.296875 1.9375 -1.171875 2.0625 -1.078125 C 2.1875 -0.984375 2.359375 -0.9375 2.578125 -0.9375 Z M 2.578125 -0.9375 "/></g></g></g><g fill="#ffffff" fill-opacity="1"><g transform="translate(52.949594, 17.363877)"><g><path d="M 1.84375 0.078125 C 1.539062 0.078125 1.269531 0.0195312 1.03125 -0.09375 C 0.789062 -0.207031 0.597656 -0.363281 0.453125 -0.5625 C 0.316406 -0.757812 0.25 -0.984375 0.25 -1.234375 C 0.25 -1.640625 0.410156 -1.957031 0.734375 -2.1875 C 1.066406 -2.414062 1.5 -2.578125 2.03125 -2.671875 L 3.15625 -2.828125 L 3.15625 -2.984375 C 3.15625 -3.203125 3.101562 -3.367188 3 -3.484375 C 2.894531 -3.609375 2.71875 -3.671875 2.46875 -3.671875 C 2.269531 -3.671875 2.113281 -3.632812 2 -3.5625 C 1.894531 -3.488281 1.8125 -3.390625 1.75 -3.265625 C 1.707031 -3.191406 1.640625 -3.15625 1.546875 -3.15625 L 0.734375 -3.15625 C 0.671875 -3.15625 0.617188 -3.171875 0.578125 -3.203125 C 0.546875 -3.242188 0.535156 -3.289062 0.546875 -3.34375 C 0.546875 -3.445312 0.582031 -3.5625 0.65625 -3.6875 C 0.726562 -3.820312 0.84375 -3.953125 1 -4.078125 C 1.15625 -4.203125 1.351562 -4.304688 1.59375 -4.390625 C 1.832031 -4.484375 2.125 -4.53125 2.46875 -4.53125 C 2.832031 -4.53125 3.140625 -4.484375 3.390625 -4.390625 C 3.648438 -4.304688 3.859375 -4.1875 4.015625 -4.03125 C 4.171875 -3.882812 4.285156 -3.707031 4.359375 -3.5 C 4.429688 -3.300781 4.46875 -3.085938 4.46875 -2.859375 L 4.46875 -0.21875 C 4.46875 -0.15625 4.445312 -0.101562 4.40625 -0.0625 C 4.363281 -0.0195312 4.3125 0 4.25 0 L 3.40625 0 C 3.351562 0 3.304688 -0.0195312 3.265625 -0.0625 C 3.222656 -0.101562 3.203125 -0.15625 3.203125 -0.21875 L 3.203125 -0.53125 C 3.128906 -0.425781 3.03125 -0.320312 2.90625 -0.21875 C 2.78125 -0.125 2.628906 -0.0507812 2.453125 0 C 2.285156 0.0507812 2.082031 0.078125 1.84375 0.078125 Z M 2.1875 -0.796875 C 2.375 -0.796875 2.539062 -0.835938 2.6875 -0.921875 C 2.84375 -1.003906 2.960938 -1.125 3.046875 -1.28125 C 3.128906 -1.445312 3.171875 -1.660156 3.171875 -1.921875 L 3.171875 -2.0625 L 2.375 -1.9375 C 2.070312 -1.882812 1.847656 -1.804688 1.703125 -1.703125 C 1.566406 -1.597656 1.5 -1.472656 1.5 -1.328125 C 1.5 -1.210938 1.53125 -1.117188 1.59375 -1.046875 C 1.65625 -0.972656 1.738281 -0.910156 1.84375 -0.859375 C 1.957031 -0.816406 2.070312 -0.796875 2.1875 -0.796875 Z M 2.1875 -0.796875 "/></g></g></g></svg>