<svg xmlns="http://www.w3.org/2000/svg" xmlns:xlink="http://www.w3.org/1999/xlink" width="96" zoomAndPan="magnify" viewBox="0 0 72 30.000001" height="40" preserveAspectRatio="xMidYMid meet" version="1.0"><defs><g/><clipPath id="10e89d1aa9"><path d="M 2.589844 7.441406 L 69.351562 7.441406 L 69.351562 21.578125 L 2.589844 21.578125 Z M 2.589844 7.441406 " clip-rule="nonzero"/></clipPath><clipPath id="0b38336eec"><path d="M 9.707031 21.578125 L 69.351562 21.578125 L 69.351562 7.441406 L 9.707031 7.441406 L 2.640625 14.511719 Z M 9.707031 21.578125 " clip-rule="nonzero"/></clipPath><clipPath id="2135b3f3b2"><path d="M 2.574219 7.789062 L 69.339844 7.789062 L 69.339844 21.578125 L 2.574219 21.578125 Z M 2.574219 7.789062 " clip-rule="nonzero"/></clipPath><clipPath id="037fe2f78d"><path d="M 9.71875 21.578125 L 69.339844 21.578125 L 69.339844 7.449219 L 9.71875 7.449219 L 2.652344 14.511719 Z M 9.71875 21.578125 " clip-rule="nonzero"/></clipPath></defs><g clip-path="url(#10e89d1aa9)"><g clip-path="url(#0b38336eec)"><path fill="#39c449" d="M 69.351562 21.578125 L 2.648438 21.578125 L 2.648438 7.441406 L 69.351562 7.441406 Z M 69.351562 21.578125 " fill-opacity="1" fill-rule="nonzero"/></g></g><g clip-path="url(#2135b3f3b2)"><g clip-path="url(#037fe2f78d)"><path stroke-linecap="butt" transform="matrix(-0.725806, 0, 0, -0.725806, 69.340534, 21.578745)" fill="none" stroke-linejoin="miter" d="M 82.14557 0.000854268 L 0.000951384 0.000854268 L 0.000951384 19.467347 L 82.14557 19.467347 L 91.881508 9.736792 Z M 82.14557 0.000854268 " stroke="#000000" stroke-width="2" stroke-opacity="1" stroke-miterlimit="4"/></g></g><path stroke-linecap="butt" transform="matrix(0.711937, 0, 0, 0.711937, -9.38296, 8.820638)" fill="none" stroke-linejoin="miter" d="M 35.620476 11.922348 C 35.669857 11.977216 35.730212 11.999163 35.80154 11.999163 L 37.063503 11.999163 C 37.184212 11.999163 37.266514 11.971729 37.321382 11.916861 C 37.370763 11.861993 37.409171 11.807125 37.431118 11.757744 L 37.935903 10.413479 L 41.321255 10.413479 L 41.837014 11.757744 C 41.853474 11.807125 41.891882 11.861993 41.94675 11.916861 C 42.001618 11.971729 42.08392 11.999163 42.199142 11.999163 L 43.455618 11.999163 C 43.526947 11.999163 43.592788 11.977216 43.642169 11.922348 C 43.697037 11.872967 43.724471 11.812612 43.724471 11.74677 C 43.724471 11.708363 43.713498 11.675442 43.697037 11.637034 L 40.854878 3.922601 C 40.821957 3.834813 40.767089 3.757998 40.695761 3.697643 C 40.624432 3.631801 40.52567 3.598881 40.399474 3.598881 L 38.863171 3.598881 C 38.736975 3.598881 38.632726 3.631801 38.561398 3.697643 C 38.490069 3.757998 38.440688 3.834813 38.418741 3.922601 L 35.560121 11.637034 C 35.554634 11.675442 35.549148 11.708363 35.549148 11.74677 C 35.549148 11.812612 35.571095 11.872967 35.620476 11.922348 Z M 39.631323 5.420496 L 40.865851 8.866203 L 38.396794 8.866203 Z M 45.842374 11.796151 C 46.281317 12.010136 46.802563 12.119872 47.395137 12.119872 C 47.828593 12.119872 48.207182 12.070491 48.53639 11.971729 C 48.871084 11.872967 49.150911 11.741283 49.386843 11.57668 C 49.617288 11.412076 49.809326 11.231012 49.95747 11.044461 C 50.105613 10.846936 50.215349 10.660385 50.286677 10.473834 C 50.358006 10.29277 50.396413 10.133653 50.407387 9.996483 C 50.412874 9.908694 50.38544 9.837366 50.325085 9.782498 C 50.259243 9.72763 50.187915 9.694709 50.105613 9.694709 L 48.821703 9.694709 C 48.733914 9.694709 48.668073 9.716656 48.624179 9.760551 C 48.580284 9.798958 48.53639 9.859313 48.497982 9.947102 C 48.393733 10.226928 48.256563 10.42994 48.09196 10.550649 C 47.921869 10.671359 47.69691 10.726226 47.417084 10.726226 C 47.060442 10.726226 46.775129 10.616491 46.572117 10.391532 C 46.369106 10.166573 46.25937 9.804445 46.24291 9.310634 C 46.226449 9.052754 46.226449 8.772928 46.24291 8.46018 C 46.25937 7.971856 46.369106 7.609727 46.572117 7.379282 C 46.775129 7.148837 47.060442 7.033614 47.417084 7.033614 C 47.685937 7.033614 47.905409 7.093969 48.080986 7.214678 C 48.256563 7.329901 48.393733 7.532912 48.497982 7.812739 C 48.53639 7.900527 48.580284 7.966369 48.624179 8.004776 C 48.668073 8.043184 48.733914 8.065131 48.821703 8.065131 L 50.105613 8.065131 C 50.187915 8.065131 50.259243 8.037697 50.325085 7.982829 C 50.38544 7.922475 50.412874 7.851146 50.407387 7.763358 C 50.396413 7.582293 50.330572 7.368308 50.209862 7.126889 C 50.09464 6.88547 49.913575 6.655025 49.672156 6.430066 C 49.436224 6.199621 49.128964 6.01307 48.750375 5.864927 C 48.377273 5.711296 47.921869 5.639968 47.395137 5.639968 C 46.802563 5.639968 46.281317 5.749704 45.8314 5.963689 C 45.38697 6.177674 45.035815 6.490421 44.783423 6.907418 C 44.53103 7.318927 44.39386 7.812739 44.371913 8.399826 C 44.360939 8.526022 44.360939 8.690626 44.360939 8.88815 C 44.360939 9.080188 44.360939 9.244792 44.371913 9.370988 C 44.39386 9.947102 44.53103 10.440913 44.788909 10.852423 C 45.046789 11.263932 45.397943 11.582166 45.842374 11.796151 Z M 52.163161 11.351721 C 52.700867 11.861993 53.436097 12.119872 54.352392 12.119872 C 54.818769 12.119872 55.230279 12.059518 55.581434 11.938808 C 55.938076 11.818099 56.239849 11.669955 56.475781 11.488891 C 56.7172 11.307827 56.898265 11.126762 57.024461 10.940211 C 57.14517 10.748174 57.216499 10.589057 57.221985 10.451887 C 57.227472 10.380558 57.205525 10.320204 57.156144 10.276309 C 57.101276 10.226928 57.040921 10.199494 56.969593 10.199494 L 55.696657 10.199494 C 55.608868 10.199494 55.543026 10.210468 55.499132 10.232415 C 55.455238 10.248875 55.40037 10.303743 55.323555 10.391532 C 55.285147 10.4464 55.224792 10.512242 55.14249 10.589057 C 55.060188 10.665872 54.950453 10.7372 54.824256 10.797555 C 54.692573 10.852423 54.533456 10.885344 54.341418 10.885344 C 54.094513 10.885344 53.886014 10.819502 53.710437 10.693306 C 53.540346 10.567109 53.408663 10.397019 53.320875 10.183034 C 53.233086 9.969049 53.183705 9.738604 53.178218 9.480724 L 53.178218 9.392935 L 57.090302 9.392935 C 57.178091 9.392935 57.249419 9.365501 57.304287 9.305147 C 57.364642 9.244792 57.392076 9.17895 57.392076 9.096649 L 57.392076 8.822309 C 57.392076 8.202301 57.276853 7.659108 57.046408 7.181757 C 56.821449 6.704406 56.481268 6.331304 56.031351 6.056964 C 55.586921 5.777138 55.021781 5.639968 54.341418 5.639968 C 53.743358 5.639968 53.216626 5.755191 52.766708 5.99661 C 52.322278 6.232542 51.971123 6.572723 51.724217 7.011667 C 51.477312 7.456097 51.340142 7.993803 51.307221 8.613811 L 51.307221 9.118596 C 51.340142 10.095245 51.625455 10.841449 52.163161 11.351721 Z M 55.521079 8.29009 L 53.178218 8.29009 L 53.178218 8.257169 C 53.178218 7.977342 53.222112 7.730437 53.315388 7.521939 C 53.408663 7.307954 53.540346 7.14335 53.710437 7.02264 C 53.886014 6.901931 54.094513 6.841576 54.341418 6.841576 C 54.588324 6.841576 54.802309 6.901931 54.977887 7.02264 C 55.153464 7.14335 55.285147 7.307954 55.378423 7.521939 C 55.471698 7.730437 55.521079 7.977342 55.521079 8.257169 Z M 58.68696 14.193881 C 58.741827 14.248749 58.813156 14.281669 58.900945 14.281669 L 60.135473 14.281669 C 60.223262 14.281669 60.300077 14.248749 60.354945 14.193881 C 60.409813 14.139013 60.437247 14.067684 60.437247 13.979896 L 60.437247 11.291366 C 60.629285 11.549246 60.876191 11.74677 61.166991 11.894914 C 61.463278 12.048544 61.819919 12.119872 62.236916 12.119872 C 62.648425 12.119872 63.005067 12.054031 63.312327 11.916861 C 63.619588 11.779691 63.882954 11.587653 64.096939 11.340747 C 64.316411 11.093842 64.481014 10.797555 64.596237 10.451887 C 64.71146 10.106219 64.777301 9.733117 64.793762 9.327094 C 64.804735 9.16249 64.804735 9.014347 64.804735 8.877177 C 64.804735 8.745494 64.804735 8.59735 64.793762 8.449207 C 64.777301 8.01575 64.71146 7.626188 64.59075 7.28052 C 64.470041 6.940338 64.305437 6.644051 64.091452 6.402633 C 63.877467 6.155727 63.619588 5.969176 63.312327 5.837493 C 63.005067 5.70581 62.648425 5.639968 62.236916 5.639968 C 61.781512 5.639968 61.402923 5.72227 61.090176 5.886874 C 60.782915 6.051478 60.536009 6.259976 60.343971 6.517855 L 60.343971 6.056964 C 60.343971 5.969176 60.316537 5.897847 60.256183 5.842979 C 60.201315 5.788112 60.129986 5.760678 60.042198 5.760678 L 58.900945 5.760678 C 58.813156 5.760678 58.741827 5.788112 58.68696 5.842979 C 58.632092 5.897847 58.604658 5.969176 58.604658 6.056964 L 58.604658 13.979896 C 58.604658 14.067684 58.632092 14.139013 58.68696 14.193881 Z M 62.407006 10.484808 C 62.231429 10.611004 61.99001 10.676845 61.688236 10.676845 C 61.40841 10.676845 61.172477 10.616491 60.991413 10.490294 C 60.804862 10.358611 60.673179 10.199494 60.58539 10.00197 C 60.492115 9.804445 60.448221 9.595947 60.437247 9.370988 C 60.43176 9.217358 60.426273 9.069215 60.426273 8.915584 C 60.426273 8.767441 60.43176 8.619297 60.437247 8.471154 C 60.448221 8.229735 60.492115 8.010263 60.574417 7.801765 C 60.662206 7.593267 60.793889 7.423176 60.974953 7.286006 C 61.15053 7.148837 61.391949 7.082995 61.688236 7.082995 C 61.99001 7.082995 62.231429 7.148837 62.407006 7.28052 C 62.582584 7.412203 62.70878 7.582293 62.785595 7.801765 C 62.856923 8.01575 62.906304 8.251682 62.922765 8.509562 C 62.939225 8.756467 62.939225 9.003373 62.922765 9.250279 C 62.906304 9.508158 62.856923 9.74409 62.785595 9.963562 C 62.70878 10.177547 62.582584 10.347638 62.407006 10.484808 Z M 67.800525 11.752257 C 68.146193 11.916861 68.568676 11.999163 69.067975 11.999163 L 70.110466 11.999163 C 70.198254 11.999163 70.269583 11.971729 70.32445 11.916861 C 70.384805 11.861993 70.412239 11.790665 70.412239 11.702876 L 70.412239 10.808528 C 70.412239 10.731713 70.384805 10.665872 70.32445 10.611004 C 70.269583 10.550649 70.198254 10.523215 70.110466 10.523215 L 69.232578 10.523215 C 68.969212 10.523215 68.782661 10.435426 68.672925 10.265336 C 68.557703 10.095245 68.502835 9.853826 68.502835 9.552052 L 68.502835 7.176271 L 70.006216 7.176271 C 70.094005 7.176271 70.165333 7.148837 70.220201 7.093969 C 70.275069 7.033614 70.302503 6.967772 70.302503 6.88547 L 70.302503 6.056964 C 70.302503 5.969176 70.275069 5.897847 70.220201 5.842979 C 70.165333 5.788112 70.094005 5.760678 70.006216 5.760678 L 68.502835 5.760678 L 68.502835 3.779945 C 68.502835 3.692156 68.475401 3.620828 68.420533 3.56596 C 68.360178 3.511092 68.294337 3.478171 68.212035 3.478171 L 67.026887 3.478171 C 66.944585 3.478171 66.878744 3.511092 66.818389 3.56596 C 66.758034 3.620828 66.725113 3.692156 66.725113 3.779945 L 66.725113 5.760678 L 65.792358 5.760678 C 65.70457 5.760678 65.633241 5.788112 65.572887 5.842979 C 65.518019 5.897847 65.490585 5.969176 65.490585 6.056964 L 65.490585 6.88547 C 65.490585 6.967772 65.518019 7.033614 65.572887 7.093969 C 65.633241 7.148837 65.70457 7.176271 65.792358 7.176271 L 66.725113 7.176271 L 66.725113 9.694709 C 66.725113 10.215955 66.818389 10.649411 66.999453 10.989593 C 67.186004 11.335261 67.454857 11.587653 67.800525 11.752257 Z M 72.140579 11.872967 C 72.475274 12.03757 72.853863 12.119872 73.281833 12.119872 C 73.605554 12.119872 73.890867 12.081465 74.137773 11.999163 C 74.379192 11.922348 74.593177 11.812612 74.768754 11.680929 C 74.944331 11.549246 75.081501 11.406589 75.18575 11.258446 L 75.18575 11.702876 C 75.18575 11.790665 75.213184 11.861993 75.268052 11.916861 C 75.32292 11.971729 75.394249 11.999163 75.471064 11.999163 L 76.661698 11.999163 C 76.744 11.999163 76.809841 11.971729 76.864709 11.916861 C 76.919577 11.861993 76.952498 11.790665 76.952498 11.702876 L 76.952498 7.993803 C 76.952498 7.664595 76.89763 7.357335 76.798868 7.077508 C 76.700106 6.792195 76.540989 6.539802 76.321517 6.325817 C 76.102045 6.106346 75.811245 5.941742 75.449116 5.821032 C 75.092475 5.700323 74.659018 5.639968 74.154233 5.639968 C 73.676882 5.639968 73.265372 5.700323 72.925191 5.821032 C 72.58501 5.941742 72.305183 6.089885 72.091198 6.270949 C 71.877213 6.446527 71.712609 6.633078 71.60836 6.819629 C 71.504111 7.000693 71.45473 7.15981 71.45473 7.29698 C 71.443757 7.368308 71.465704 7.428663 71.515085 7.483531 C 71.558979 7.532912 71.630308 7.560346 71.718096 7.560346 L 72.85935 7.560346 C 72.985546 7.560346 73.084308 7.505478 73.15015 7.401229 C 73.237938 7.236625 73.358648 7.099455 73.512278 6.995206 C 73.665908 6.890957 73.879893 6.841576 74.143259 6.841576 C 74.505388 6.841576 74.752294 6.923878 74.89495 7.093969 C 75.043094 7.258572 75.114422 7.499991 75.114422 7.812739 L 75.114422 8.026724 L 73.545199 8.257169 C 72.793508 8.372392 72.184474 8.59735 71.723583 8.926558 C 71.262692 9.255766 71.037734 9.705683 71.037734 10.270823 C 71.037734 10.616491 71.136496 10.929238 71.334021 11.209064 C 71.537032 11.488891 71.805885 11.708363 72.140579 11.872967 Z M 74.46698 10.704279 C 74.258482 10.814015 74.02255 10.87437 73.759184 10.87437 C 73.589093 10.87437 73.435463 10.841449 73.287319 10.786581 C 73.139176 10.726226 73.018467 10.638438 72.925191 10.534189 C 72.831916 10.424453 72.788021 10.29277 72.788021 10.139139 C 72.788021 9.930641 72.886783 9.755064 73.084308 9.612407 C 73.287319 9.469751 73.600067 9.360015 74.02255 9.288686 L 75.141856 9.107622 L 75.141856 9.310634 C 75.141856 9.661788 75.081501 9.958075 74.955305 10.188521 C 74.840082 10.418966 74.675478 10.589057 74.46698 10.704279 Z M 79.652001 11.922348 C 79.964748 12.054031 80.32139 12.119872 80.721926 12.119872 C 81.17733 12.119872 81.555919 12.043057 81.857692 11.88394 C 82.159466 11.73031 82.411859 11.532785 82.61487 11.291366 L 82.61487 11.702876 C 82.61487 11.790665 82.642304 11.861993 82.697172 11.916861 C 82.75204 11.971729 82.823368 11.999163 82.900183 11.999163 L 84.05241 11.999163 C 84.140199 11.999163 84.211527 11.971729 84.271882 11.916861 C 84.32675 11.861993 84.354184 11.790665 84.354184 11.702876 L 84.354184 3.779945 C 84.354184 3.692156 84.32675 3.620828 84.271882 3.56596 C 84.211527 3.511092 84.140199 3.478171 84.05241 3.478171 L 82.817881 3.478171 C 82.730093 3.478171 82.658764 3.511092 82.59841 3.56596 C 82.543542 3.620828 82.516108 3.692156 82.516108 3.779945 L 82.516108 6.386172 C 82.329557 6.1667 82.082651 5.991123 81.786364 5.848466 C 81.490077 5.711296 81.133435 5.639968 80.721926 5.639968 C 80.32139 5.639968 79.959261 5.711296 79.646514 5.848466 C 79.32828 5.991123 79.064914 6.183161 78.850929 6.44104 C 78.642431 6.693433 78.477827 6.98972 78.357118 7.335388 C 78.241895 7.675569 78.176053 8.054158 78.159593 8.471154 C 78.154106 8.619297 78.148619 8.750981 78.148619 8.87169 C 78.148619 8.997886 78.154106 9.135056 78.159593 9.288686 C 78.187027 9.71117 78.252868 10.095245 78.362604 10.4464 C 78.477827 10.797555 78.642431 11.093842 78.856416 11.346234 C 79.075888 11.598627 79.339254 11.790665 79.652001 11.922348 Z M 81.983889 10.473834 C 81.808311 10.611004 81.566892 10.676845 81.270605 10.676845 C 80.963345 10.676845 80.727413 10.611004 80.551835 10.484808 C 80.376258 10.347638 80.250062 10.177547 80.173246 9.963562 C 80.096431 9.74409 80.052537 9.508158 80.036077 9.250279 C 80.019616 9.003373 80.019616 8.756467 80.036077 8.509562 C 80.052537 8.251682 80.096431 8.01575 80.173246 7.801765 C 80.250062 7.582293 80.376258 7.412203 80.551835 7.28052 C 80.727413 7.148837 80.963345 7.082995 81.270605 7.082995 C 81.555919 7.082995 81.791851 7.14335 81.967428 7.275033 C 82.143006 7.401229 82.274689 7.560346 82.367964 7.757871 C 82.46124 7.955395 82.510621 8.163894 82.516108 8.388852 C 82.532568 8.531509 82.543542 8.679652 82.543542 8.833282 C 82.543542 8.981426 82.532568 9.135056 82.516108 9.288686 C 82.510621 9.524619 82.466727 9.749577 82.378938 9.963562 C 82.296636 10.166573 82.164953 10.342151 81.983889 10.473834 Z M 86.565362 11.872967 C 86.900056 12.03757 87.278645 12.119872 87.701128 12.119872 C 88.030336 12.119872 88.315649 12.081465 88.562555 11.999163 C 88.803974 11.922348 89.017959 11.812612 89.193536 11.680929 C 89.369114 11.549246 89.506284 11.406589 89.610533 11.258446 L 89.610533 11.702876 C 89.610533 11.790665 89.637967 11.861993 89.692835 11.916861 C 89.747703 11.971729 89.819031 11.999163 89.895846 11.999163 L 91.086481 11.999163 C 91.168782 11.999163 91.234624 11.971729 91.289492 11.916861 C 91.34436 11.861993 91.371794 11.790665 91.371794 11.702876 L 91.371794 7.993803 C 91.371794 7.664595 91.322413 7.357335 91.22365 7.077508 C 91.124888 6.792195 90.965771 6.539802 90.746299 6.325817 C 90.521341 6.106346 90.236027 5.941742 89.873899 5.821032 C 89.517257 5.700323 89.083801 5.639968 88.579015 5.639968 C 88.096178 5.639968 87.690155 5.700323 87.349974 5.821032 C 87.009792 5.941742 86.729966 6.089885 86.515981 6.270949 C 86.296509 6.446527 86.137392 6.633078 86.033143 6.819629 C 85.928894 7.000693 85.879513 7.15981 85.879513 7.29698 C 85.868539 7.368308 85.890486 7.428663 85.934381 7.483531 C 85.983762 7.532912 86.05509 7.560346 86.142879 7.560346 L 87.284132 7.560346 C 87.410328 7.560346 87.509091 7.505478 87.569445 7.401229 C 87.657234 7.236625 87.777944 7.099455 87.937061 6.995206 C 88.090691 6.890957 88.304676 6.841576 88.568042 6.841576 C 88.924684 6.841576 89.177076 6.923878 89.319733 7.093969 C 89.462389 7.258572 89.539205 7.499991 89.539205 7.812739 L 89.539205 8.026724 L 87.964495 8.257169 C 87.212804 8.372392 86.609256 8.59735 86.148366 8.926558 C 85.687475 9.255766 85.457029 9.705683 85.457029 10.270823 C 85.457029 10.616491 85.561279 10.929238 85.758803 11.209064 C 85.961815 11.488891 86.225181 11.708363 86.565362 11.872967 Z M 88.891763 10.704279 C 88.683265 10.814015 88.447332 10.87437 88.183966 10.87437 C 88.013876 10.87437 87.860245 10.841449 87.706615 10.786581 C 87.558472 10.726226 87.443249 10.638438 87.349974 10.534189 C 87.256698 10.424453 87.212804 10.29277 87.212804 10.139139 C 87.212804 9.930641 87.311566 9.755064 87.509091 9.612407 C 87.712102 9.469751 88.024849 9.360015 88.447332 9.288686 L 89.561152 9.107622 L 89.561152 9.310634 C 89.561152 9.661788 89.500797 9.958075 89.380087 10.188521 C 89.264865 10.418966 89.100261 10.589057 88.891763 10.704279 Z M 88.891763 10.704279 " stroke="#000000" stroke-width="1.77" stroke-opacity="1" stroke-miterlimit="4"/><g fill="#ffffff" fill-opacity="1"><g transform="translate(15.824047, 17.363877)"><g><path d="M 0.28125 0 C 0.226562 0 0.1875 -0.015625 0.15625 -0.046875 C 0.125 -0.0859375 0.109375 -0.128906 0.109375 -0.171875 C 0.109375 -0.203125 0.109375 -0.226562 0.109375 -0.25 L 2.140625 -5.75 C 2.160156 -5.8125 2.195312 -5.863281 2.25 -5.90625 C 2.300781 -5.957031 2.375 -5.984375 2.46875 -5.984375 L 3.5625 -5.984375 C 3.644531 -5.984375 3.710938 -5.957031 3.765625 -5.90625 C 3.816406 -5.863281 3.851562 -5.8125 3.875 -5.75 L 5.90625 -0.25 C 5.914062 -0.226562 5.921875 -0.203125 5.921875 -0.171875 C 5.921875 -0.128906 5.898438 -0.0859375 5.859375 -0.046875 C 5.828125 -0.015625 5.785156 0 5.734375 0 L 4.84375 0 C 4.757812 0 4.695312 -0.0195312 4.65625 -0.0625 C 4.613281 -0.101562 4.585938 -0.140625 4.578125 -0.171875 L 4.21875 -1.125 L 1.796875 -1.125 L 1.4375 -0.171875 C 1.425781 -0.140625 1.398438 -0.101562 1.359375 -0.0625 C 1.328125 -0.0195312 1.265625 0 1.171875 0 Z M 2.125 -2.234375 L 3.890625 -2.234375 L 3.015625 -4.6875 Z M 2.125 -2.234375 "/></g></g></g><g fill="#ffffff" fill-opacity="1"><g transform="translate(21.83853, 17.363877)"><g><path d="M 2.515625 0.078125 C 2.097656 0.078125 1.726562 0.00390625 1.40625 -0.140625 C 1.09375 -0.296875 0.84375 -0.519531 0.65625 -0.8125 C 0.476562 -1.101562 0.382812 -1.457031 0.375 -1.875 C 0.363281 -1.96875 0.359375 -2.082031 0.359375 -2.21875 C 0.359375 -2.351562 0.363281 -2.46875 0.375 -2.5625 C 0.382812 -2.976562 0.476562 -3.332031 0.65625 -3.625 C 0.84375 -3.914062 1.09375 -4.140625 1.40625 -4.296875 C 1.726562 -4.453125 2.097656 -4.53125 2.515625 -4.53125 C 2.890625 -4.53125 3.210938 -4.476562 3.484375 -4.375 C 3.753906 -4.269531 3.972656 -4.132812 4.140625 -3.96875 C 4.316406 -3.800781 4.445312 -3.632812 4.53125 -3.46875 C 4.613281 -3.300781 4.660156 -3.148438 4.671875 -3.015625 C 4.671875 -2.953125 4.644531 -2.898438 4.59375 -2.859375 C 4.550781 -2.816406 4.503906 -2.796875 4.453125 -2.796875 L 3.53125 -2.796875 C 3.46875 -2.796875 3.421875 -2.8125 3.390625 -2.84375 C 3.359375 -2.875 3.332031 -2.921875 3.3125 -2.984375 C 3.238281 -3.179688 3.140625 -3.320312 3.015625 -3.40625 C 2.890625 -3.488281 2.726562 -3.53125 2.53125 -3.53125 C 2.28125 -3.53125 2.082031 -3.445312 1.9375 -3.28125 C 1.789062 -3.125 1.710938 -2.867188 1.703125 -2.515625 C 1.691406 -2.296875 1.691406 -2.097656 1.703125 -1.921875 C 1.710938 -1.566406 1.789062 -1.304688 1.9375 -1.140625 C 2.082031 -0.984375 2.28125 -0.90625 2.53125 -0.90625 C 2.738281 -0.90625 2.898438 -0.945312 3.015625 -1.03125 C 3.140625 -1.113281 3.238281 -1.257812 3.3125 -1.46875 C 3.332031 -1.53125 3.359375 -1.570312 3.390625 -1.59375 C 3.421875 -1.625 3.46875 -1.640625 3.53125 -1.640625 L 4.453125 -1.640625 C 4.503906 -1.640625 4.550781 -1.617188 4.59375 -1.578125 C 4.644531 -1.535156 4.671875 -1.484375 4.671875 -1.421875 C 4.660156 -1.328125 4.628906 -1.210938 4.578125 -1.078125 C 4.523438 -0.953125 4.445312 -0.820312 4.34375 -0.6875 C 4.238281 -0.550781 4.101562 -0.421875 3.9375 -0.296875 C 3.769531 -0.179688 3.566406 -0.0859375 3.328125 -0.015625 C 3.097656 0.046875 2.828125 0.078125 2.515625 0.078125 Z M 2.515625 0.078125 "/></g></g></g><g fill="#ffffff" fill-opacity="1"><g transform="translate(26.793647, 17.363877)"><g><path d="M 2.515625 0.078125 C 1.859375 0.078125 1.335938 -0.101562 0.953125 -0.46875 C 0.578125 -0.832031 0.375 -1.359375 0.34375 -2.046875 C 0.34375 -2.097656 0.34375 -2.160156 0.34375 -2.234375 C 0.34375 -2.304688 0.34375 -2.363281 0.34375 -2.40625 C 0.375 -2.851562 0.476562 -3.234375 0.65625 -3.546875 C 0.832031 -3.867188 1.078125 -4.113281 1.390625 -4.28125 C 1.710938 -4.445312 2.085938 -4.53125 2.515625 -4.53125 C 2.992188 -4.53125 3.394531 -4.429688 3.71875 -4.234375 C 4.039062 -4.035156 4.28125 -3.765625 4.4375 -3.421875 C 4.601562 -3.085938 4.6875 -2.703125 4.6875 -2.265625 L 4.6875 -2.0625 C 4.6875 -2.007812 4.664062 -1.960938 4.625 -1.921875 C 4.582031 -1.878906 4.53125 -1.859375 4.46875 -1.859375 L 1.6875 -1.859375 C 1.6875 -1.859375 1.6875 -1.847656 1.6875 -1.828125 C 1.6875 -1.816406 1.6875 -1.804688 1.6875 -1.796875 C 1.6875 -1.609375 1.71875 -1.4375 1.78125 -1.28125 C 1.84375 -1.132812 1.9375 -1.015625 2.0625 -0.921875 C 2.1875 -0.835938 2.335938 -0.796875 2.515625 -0.796875 C 2.648438 -0.796875 2.757812 -0.816406 2.84375 -0.859375 C 2.9375 -0.898438 3.015625 -0.945312 3.078125 -1 C 3.140625 -1.050781 3.1875 -1.097656 3.21875 -1.140625 C 3.269531 -1.203125 3.3125 -1.238281 3.34375 -1.25 C 3.375 -1.269531 3.421875 -1.28125 3.484375 -1.28125 L 4.390625 -1.28125 C 4.441406 -1.28125 4.484375 -1.257812 4.515625 -1.21875 C 4.554688 -1.1875 4.570312 -1.148438 4.5625 -1.109375 C 4.5625 -1.003906 4.515625 -0.882812 4.421875 -0.75 C 4.335938 -0.625 4.207031 -0.492188 4.03125 -0.359375 C 3.863281 -0.234375 3.648438 -0.128906 3.390625 -0.046875 C 3.140625 0.0351562 2.847656 0.078125 2.515625 0.078125 Z M 1.6875 -2.640625 L 3.34375 -2.640625 L 3.34375 -2.671875 C 3.34375 -2.867188 3.3125 -3.039062 3.25 -3.1875 C 3.1875 -3.34375 3.09375 -3.460938 2.96875 -3.546875 C 2.84375 -3.628906 2.691406 -3.671875 2.515625 -3.671875 C 2.335938 -3.671875 2.1875 -3.628906 2.0625 -3.546875 C 1.9375 -3.460938 1.84375 -3.34375 1.78125 -3.1875 C 1.71875 -3.039062 1.6875 -2.867188 1.6875 -2.671875 Z M 1.6875 -2.640625 "/></g></g></g><g fill="#ffffff" fill-opacity="1"><g transform="translate(31.800016, 17.363877)"><g><path d="M 0.75 1.625 C 0.6875 1.625 0.632812 1.601562 0.59375 1.5625 C 0.550781 1.519531 0.53125 1.46875 0.53125 1.40625 L 0.53125 -4.234375 C 0.53125 -4.296875 0.550781 -4.34375 0.59375 -4.375 C 0.632812 -4.414062 0.6875 -4.4375 0.75 -4.4375 L 1.5625 -4.4375 C 1.625 -4.4375 1.675781 -4.414062 1.71875 -4.375 C 1.757812 -4.34375 1.78125 -4.296875 1.78125 -4.234375 L 1.78125 -3.90625 C 1.914062 -4.082031 2.09375 -4.226562 2.3125 -4.34375 C 2.53125 -4.46875 2.800781 -4.53125 3.125 -4.53125 C 3.414062 -4.53125 3.671875 -4.484375 3.890625 -4.390625 C 4.109375 -4.296875 4.289062 -4.160156 4.4375 -3.984375 C 4.59375 -3.804688 4.710938 -3.59375 4.796875 -3.34375 C 4.890625 -3.101562 4.941406 -2.832031 4.953125 -2.53125 C 4.953125 -2.425781 4.953125 -2.320312 4.953125 -2.21875 C 4.953125 -2.125 4.953125 -2.019531 4.953125 -1.90625 C 4.941406 -1.613281 4.894531 -1.34375 4.8125 -1.09375 C 4.726562 -0.851562 4.609375 -0.644531 4.453125 -0.46875 C 4.296875 -0.289062 4.109375 -0.15625 3.890625 -0.0625 C 3.671875 0.03125 3.414062 0.078125 3.125 0.078125 C 2.832031 0.078125 2.578125 0.0234375 2.359375 -0.078125 C 2.148438 -0.179688 1.976562 -0.320312 1.84375 -0.5 L 1.84375 1.40625 C 1.84375 1.46875 1.820312 1.519531 1.78125 1.5625 C 1.738281 1.601562 1.6875 1.625 1.625 1.625 Z M 2.734375 -0.9375 C 2.953125 -0.9375 3.125 -0.984375 3.25 -1.078125 C 3.375 -1.171875 3.460938 -1.296875 3.515625 -1.453125 C 3.566406 -1.609375 3.597656 -1.773438 3.609375 -1.953125 C 3.617188 -2.128906 3.617188 -2.304688 3.609375 -2.484375 C 3.597656 -2.671875 3.566406 -2.835938 3.515625 -2.984375 C 3.460938 -3.140625 3.375 -3.265625 3.25 -3.359375 C 3.125 -3.453125 2.953125 -3.5 2.734375 -3.5 C 2.523438 -3.5 2.351562 -3.453125 2.21875 -3.359375 C 2.09375 -3.265625 2 -3.140625 1.9375 -2.984375 C 1.882812 -2.835938 1.851562 -2.679688 1.84375 -2.515625 C 1.84375 -2.410156 1.84375 -2.300781 1.84375 -2.1875 C 1.84375 -2.082031 1.84375 -1.976562 1.84375 -1.875 C 1.851562 -1.707031 1.890625 -1.554688 1.953125 -1.421875 C 2.015625 -1.285156 2.109375 -1.171875 2.234375 -1.078125 C 2.367188 -0.984375 2.535156 -0.9375 2.734375 -0.9375 Z M 2.734375 -0.9375 "/></g></g></g><g fill="#ffffff" fill-opacity="1"><g transform="translate(37.113947, 17.363877)"><g><path d="M 2.671875 0 C 2.316406 0 2.015625 -0.0546875 1.765625 -0.171875 C 1.523438 -0.285156 1.335938 -0.460938 1.203125 -0.703125 C 1.078125 -0.953125 1.015625 -1.265625 1.015625 -1.640625 L 1.015625 -3.4375 L 0.34375 -3.4375 C 0.28125 -3.4375 0.226562 -3.457031 0.1875 -3.5 C 0.144531 -3.539062 0.125 -3.585938 0.125 -3.640625 L 0.125 -4.234375 C 0.125 -4.296875 0.144531 -4.34375 0.1875 -4.375 C 0.226562 -4.414062 0.28125 -4.4375 0.34375 -4.4375 L 1.015625 -4.4375 L 1.015625 -5.859375 C 1.015625 -5.921875 1.035156 -5.96875 1.078125 -6 C 1.117188 -6.039062 1.164062 -6.0625 1.21875 -6.0625 L 2.0625 -6.0625 C 2.125 -6.0625 2.175781 -6.039062 2.21875 -6 C 2.257812 -5.96875 2.28125 -5.921875 2.28125 -5.859375 L 2.28125 -4.4375 L 3.34375 -4.4375 C 3.40625 -4.4375 3.457031 -4.414062 3.5 -4.375 C 3.539062 -4.34375 3.5625 -4.296875 3.5625 -4.234375 L 3.5625 -3.640625 C 3.5625 -3.585938 3.539062 -3.539062 3.5 -3.5 C 3.457031 -3.457031 3.40625 -3.4375 3.34375 -3.4375 L 2.28125 -3.4375 L 2.28125 -1.75 C 2.28125 -1.53125 2.316406 -1.359375 2.390625 -1.234375 C 2.472656 -1.109375 2.609375 -1.046875 2.796875 -1.046875 L 3.421875 -1.046875 C 3.484375 -1.046875 3.53125 -1.023438 3.5625 -0.984375 C 3.601562 -0.953125 3.625 -0.90625 3.625 -0.84375 L 3.625 -0.21875 C 3.625 -0.15625 3.601562 -0.101562 3.5625 -0.0625 C 3.53125 -0.0195312 3.484375 0 3.421875 0 Z M 2.671875 0 "/></g></g></g><g fill="#ffffff" fill-opacity="1"><g transform="translate(40.941345, 17.363877)"><g><path d="M 1.84375 0.078125 C 1.539062 0.078125 1.269531 0.0195312 1.03125 -0.09375 C 0.789062 -0.207031 0.597656 -0.363281 0.453125 -0.5625 C 0.316406 -0.757812 0.25 -0.984375 0.25 -1.234375 C 0.25 -1.640625 0.410156 -1.957031 0.734375 -2.1875 C 1.066406 -2.414062 1.5 -2.578125 2.03125 -2.671875 L 3.15625 -2.828125 L 3.15625 -2.984375 C 3.15625 -3.203125 3.101562 -3.367188 3 -3.484375 C 2.894531 -3.609375 2.71875 -3.671875 2.46875 -3.671875 C 2.269531 -3.671875 2.113281 -3.632812 2 -3.5625 C 1.894531 -3.488281 1.8125 -3.390625 1.75 -3.265625 C 1.707031 -3.191406 1.640625 -3.15625 1.546875 -3.15625 L 0.734375 -3.15625 C 0.671875 -3.15625 0.617188 -3.171875 0.578125 -3.203125 C 0.546875 -3.242188 0.535156 -3.289062 0.546875 -3.34375 C 0.546875 -3.445312 0.582031 -3.5625 0.65625 -3.6875 C 0.726562 -3.820312 0.84375 -3.953125 1 -4.078125 C 1.15625 -4.203125 1.351562 -4.304688 1.59375 -4.390625 C 1.832031 -4.484375 2.125 -4.53125 2.46875 -4.53125 C 2.832031 -4.53125 3.140625 -4.484375 3.390625 -4.390625 C 3.648438 -4.304688 3.859375 -4.1875 4.015625 -4.03125 C 4.171875 -3.882812 4.285156 -3.707031 4.359375 -3.5 C 4.429688 -3.300781 4.46875 -3.085938 4.46875 -2.859375 L 4.46875 -0.21875 C 4.46875 -0.15625 4.445312 -0.101562 4.40625 -0.0625 C 4.363281 -0.0195312 4.3125 0 4.25 0 L 3.40625 0 C 3.351562 0 3.304688 -0.0195312 3.265625 -0.0625 C 3.222656 -0.101562 3.203125 -0.15625 3.203125 -0.21875 L 3.203125 -0.53125 C 3.128906 -0.425781 3.03125 -0.320312 2.90625 -0.21875 C 2.78125 -0.125 2.628906 -0.0507812 2.453125 0 C 2.285156 0.0507812 2.082031 0.078125 1.84375 0.078125 Z M 2.1875 -0.796875 C 2.375 -0.796875 2.539062 -0.835938 2.6875 -0.921875 C 2.84375 -1.003906 2.960938 -1.125 3.046875 -1.28125 C 3.128906 -1.445312 3.171875 -1.660156 3.171875 -1.921875 L 3.171875 -2.0625 L 2.375 -1.9375 C 2.070312 -1.882812 1.847656 -1.804688 1.703125 -1.703125 C 1.566406 -1.597656 1.5 -1.472656 1.5 -1.328125 C 1.5 -1.210938 1.53125 -1.117188 1.59375 -1.046875 C 1.65625 -0.972656 1.738281 -0.910156 1.84375 -0.859375 C 1.957031 -0.816406 2.070312 -0.796875 2.1875 -0.796875 Z M 2.1875 -0.796875 "/></g></g></g><g fill="#ffffff" fill-opacity="1"><g transform="translate(45.896462, 17.363877)"><g><path d="M 2.1875 0.078125 C 1.90625 0.078125 1.648438 0.03125 1.421875 -0.0625 C 1.203125 -0.15625 1.015625 -0.289062 0.859375 -0.46875 C 0.703125 -0.644531 0.582031 -0.859375 0.5 -1.109375 C 0.425781 -1.359375 0.382812 -1.632812 0.375 -1.9375 C 0.363281 -2.039062 0.359375 -2.132812 0.359375 -2.21875 C 0.359375 -2.3125 0.363281 -2.410156 0.375 -2.515625 C 0.382812 -2.804688 0.425781 -3.070312 0.5 -3.3125 C 0.582031 -3.5625 0.695312 -3.773438 0.84375 -3.953125 C 1 -4.140625 1.191406 -4.28125 1.421875 -4.375 C 1.648438 -4.476562 1.90625 -4.53125 2.1875 -4.53125 C 2.476562 -4.53125 2.726562 -4.476562 2.9375 -4.375 C 3.15625 -4.28125 3.332031 -4.15625 3.46875 -4 L 3.46875 -5.859375 C 3.46875 -5.921875 3.488281 -5.96875 3.53125 -6 C 3.570312 -6.039062 3.625 -6.0625 3.6875 -6.0625 L 4.5625 -6.0625 C 4.625 -6.0625 4.675781 -6.039062 4.71875 -6 C 4.757812 -5.96875 4.78125 -5.921875 4.78125 -5.859375 L 4.78125 -0.21875 C 4.78125 -0.15625 4.757812 -0.101562 4.71875 -0.0625 C 4.675781 -0.0195312 4.625 0 4.5625 0 L 3.75 0 C 3.6875 0 3.632812 -0.0195312 3.59375 -0.0625 C 3.550781 -0.101562 3.53125 -0.15625 3.53125 -0.21875 L 3.53125 -0.5 C 3.394531 -0.332031 3.21875 -0.191406 3 -0.078125 C 2.78125 0.0234375 2.507812 0.078125 2.1875 0.078125 Z M 2.578125 -0.9375 C 2.785156 -0.9375 2.953125 -0.984375 3.078125 -1.078125 C 3.210938 -1.179688 3.3125 -1.304688 3.375 -1.453125 C 3.4375 -1.597656 3.46875 -1.757812 3.46875 -1.9375 C 3.476562 -2.039062 3.484375 -2.144531 3.484375 -2.25 C 3.484375 -2.363281 3.476562 -2.472656 3.46875 -2.578125 C 3.46875 -2.734375 3.429688 -2.878906 3.359375 -3.015625 C 3.296875 -3.160156 3.203125 -3.273438 3.078125 -3.359375 C 2.953125 -3.453125 2.785156 -3.5 2.578125 -3.5 C 2.359375 -3.5 2.1875 -3.453125 2.0625 -3.359375 C 1.9375 -3.265625 1.847656 -3.140625 1.796875 -2.984375 C 1.742188 -2.835938 1.710938 -2.671875 1.703125 -2.484375 C 1.691406 -2.304688 1.691406 -2.128906 1.703125 -1.953125 C 1.710938 -1.773438 1.742188 -1.609375 1.796875 -1.453125 C 1.847656 -1.296875 1.9375 -1.171875 2.0625 -1.078125 C 2.1875 -0.984375 2.359375 -0.9375 2.578125 -0.9375 Z M 2.578125 -0.9375 "/></g></g></g><g fill="#ffffff" fill-opacity="1"><g transform="translate(51.210392, 17.363877)"><g><path d="M 1.84375 0.078125 C 1.539062 0.078125 1.269531 0.0195312 1.03125 -0.09375 C 0.789062 -0.207031 0.597656 -0.363281 0.453125 -0.5625 C 0.316406 -0.757812 0.25 -0.984375 0.25 -1.234375 C 0.25 -1.640625 0.410156 -1.957031 0.734375 -2.1875 C 1.066406 -2.414062 1.5 -2.578125 2.03125 -2.671875 L 3.15625 -2.828125 L 3.15625 -2.984375 C 3.15625 -3.203125 3.101562 -3.367188 3 -3.484375 C 2.894531 -3.609375 2.71875 -3.671875 2.46875 -3.671875 C 2.269531 -3.671875 2.113281 -3.632812 2 -3.5625 C 1.894531 -3.488281 1.8125 -3.390625 1.75 -3.265625 C 1.707031 -3.191406 1.640625 -3.15625 1.546875 -3.15625 L 0.734375 -3.15625 C 0.671875 -3.15625 0.617188 -3.171875 0.578125 -3.203125 C 0.546875 -3.242188 0.535156 -3.289062 0.546875 -3.34375 C 0.546875 -3.445312 0.582031 -3.5625 0.65625 -3.6875 C 0.726562 -3.820312 0.84375 -3.953125 1 -4.078125 C 1.15625 -4.203125 1.351562 -4.304688 1.59375 -4.390625 C 1.832031 -4.484375 2.125 -4.53125 2.46875 -4.53125 C 2.832031 -4.53125 3.140625 -4.484375 3.390625 -4.390625 C 3.648438 -4.304688 3.859375 -4.1875 4.015625 -4.03125 C 4.171875 -3.882812 4.285156 -3.707031 4.359375 -3.5 C 4.429688 -3.300781 4.46875 -3.085938 4.46875 -2.859375 L 4.46875 -0.21875 C 4.46875 -0.15625 4.445312 -0.101562 4.40625 -0.0625 C 4.363281 -0.0195312 4.3125 0 4.25 0 L 3.40625 0 C 3.351562 0 3.304688 -0.0195312 3.265625 -0.0625 C 3.222656 -0.101562 3.203125 -0.15625 3.203125 -0.21875 L 3.203125 -0.53125 C 3.128906 -0.425781 3.03125 -0.320312 2.90625 -0.21875 C 2.78125 -0.125 2.628906 -0.0507812 2.453125 0 C 2.285156 0.0507812 2.082031 0.078125 1.84375 0.078125 Z M 2.1875 -0.796875 C 2.375 -0.796875 2.539062 -0.835938 2.6875 -0.921875 C 2.84375 -1.003906 2.960938 -1.125 3.046875 -1.28125 C 3.128906 -1.445312 3.171875 -1.660156 3.171875 -1.921875 L 3.171875 -2.0625 L 2.375 -1.9375 C 2.070312 -1.882812 1.847656 -1.804688 1.703125 -1.703125 C 1.566406 -1.597656 1.5 -1.472656 1.5 -1.328125 C 1.5 -1.210938 1.53125 -1.117188 1.59375 -1.046875 C 1.65625 -0.972656 1.738281 -0.910156 1.84375 -0.859375 C 1.957031 -0.816406 2.070312 -0.796875 2.1875 -0.796875 Z M 2.1875 -0.796875 "/></g></g></g></svg>